<svg width="100" height="60" viewBox="0 0 100 60" fill="none" xmlns="http://www.w3.org/2000/svg">
<path fill-rule="evenodd" clip-rule="evenodd" d="M5 0C2.23858 0 0 2.23858 0 5V55C0 57.7614 2.23858 60 5 60H95C97.7614 60 100 57.7614 100 55V5C100 2.23858 97.7614 0 95 0H5ZM8.43045 4.94968C7.29809 4.15966 5.7397 4.43719 4.94968 5.56955C4.15966 6.70191 4.43719 8.2603 5.56955 9.05032L28.9686 25.3753C28.6834 25.5772 28.4362 25.8426 28.25 26.1651L13.25 52.1458C12.5596 53.3416 12.9693 54.8705 14.1651 55.5609C15.3608 56.2512 16.8898 55.8416 17.5801 54.6458L32.5801 28.6651C32.6909 28.4732 32.7734 28.2727 32.8288 28.0684L45.7086 37.0543C48.2868 38.8531 51.7132 38.8531 54.2914 37.0543L66.7663 28.3509C66.8096 28.4576 66.8607 28.5625 66.9199 28.6651L81.9199 54.6459C82.6102 55.8416 84.1392 56.2513 85.3349 55.5609C86.5307 54.8706 86.9404 53.3416 86.25 52.1459L71.25 26.1651C71.1165 25.9339 70.9516 25.732 70.7639 25.5619L94.4305 9.05032C95.5628 8.2603 95.8403 6.70191 95.0503 5.56955C94.2603 4.43719 92.7019 4.15966 91.5695 4.94968L51.4305 32.9537C50.5711 33.5533 49.4289 33.5533 48.5695 32.9537L8.43045 4.94968Z" fill="#01FFDD"/>
</svg>
