<svg width="185" height="217" viewBox="0 0 185 217" fill="none" xmlns="http://www.w3.org/2000/svg">
<mask id="mask0_108_117" style="mask-type:alpha" maskUnits="userSpaceOnUse" x="17" y="14" width="155" height="186">
<path d="M115.864 189.914C113.657 189.989 111.927 191.84 112.002 194.047C112.077 196.255 113.928 197.984 116.136 197.91L115.864 189.914ZM116.591 87.4558C114.406 87.1295 112.37 88.6362 112.044 90.8211C111.718 93.006 113.224 95.0417 115.409 95.368L116.591 87.4558ZM116.136 197.91C147.865 196.834 168.565 172.315 170.982 146.599C172.196 133.683 168.824 120.342 159.871 109.457C150.907 98.5595 136.624 90.4477 116.591 87.4558L115.409 95.368C133.876 98.1261 146.218 105.452 153.692 114.539C161.176 123.638 164.054 134.828 163.018 145.85C160.935 168.009 143.135 188.99 115.864 189.914L116.136 197.91Z" fill="#007CC1"/>
<path d="M116 91.4119C60 84.4119 58 18.912 116 18.912M116 193.912C116 193.912 35.5 197.912 43 88.4119" stroke="#007CC1" stroke-width="8" stroke-miterlimit="11.4737" stroke-linecap="round"/>
<path d="M116 18.9119C93.5 16.9119 46.979 24.232 43 88.9119" stroke="#007CC1" stroke-width="8" stroke-linecap="round"/>
<path d="M115.864 189.914C113.657 189.989 111.927 191.84 112.002 194.047C112.077 196.255 113.928 197.984 116.136 197.91L115.864 189.914ZM116.591 87.4558C114.406 87.1295 112.37 88.6362 112.044 90.8211C111.718 93.006 113.224 95.0417 115.409 95.368L116.591 87.4558ZM116.136 197.91C147.865 196.834 168.565 172.315 170.982 146.599C172.196 133.683 168.824 120.342 159.871 109.457C150.907 98.5595 136.624 90.4477 116.591 87.4558L115.409 95.368C133.876 98.1261 146.218 105.452 153.692 114.539C161.176 123.638 164.054 134.828 163.018 145.85C160.935 168.009 143.135 188.99 115.864 189.914L116.136 197.91Z" fill="#007CC1"/>
<path d="M116 91.4119C60 84.4119 58 18.912 116 18.912M116 193.912C116 193.912 35.5 197.912 43 88.4119" stroke="#007CC1" stroke-width="8" stroke-miterlimit="11.4737" stroke-linecap="round"/>
<path d="M116 18.9119C93.5 16.9119 46.979 24.232 43 88.9119" stroke="#007CC1" stroke-width="8" stroke-linecap="round"/>
<circle cx="40" cy="176.912" r="19" stroke="#007CC1" stroke-width="8"/>
</mask>
<g mask="url(#mask0_108_117)">
<rect x="3" y="2" width="197" height="216" fill="url(#paint0_linear_108_117)"/>
</g>
<g filter="url(#filter0_f_108_117)">
<mask id="mask1_108_117" style="mask-type:alpha" maskUnits="userSpaceOnUse" x="10" y="11" width="165" height="196">
<path d="M115.746 186.416C111.606 186.557 108.364 190.026 108.504 194.166C108.645 198.306 112.114 201.548 116.254 201.408L115.746 186.416ZM117.108 83.9942C113.011 83.3823 109.194 86.2074 108.582 90.3041C107.97 94.4008 110.795 98.2178 114.892 98.8296L117.108 83.9942ZM116.254 201.408C149.934 200.266 171.904 174.199 174.467 146.926C175.759 133.182 172.17 118.901 162.574 107.234C152.959 95.5441 137.826 87.0885 117.108 83.9942L114.892 98.8296C132.674 101.485 144.166 108.467 150.989 116.762C157.83 125.079 160.491 135.33 159.533 145.523C157.596 166.125 141.066 185.558 115.746 186.416L116.254 201.408Z" fill="white"/>
<path d="M116 91.4119C60 84.4119 58 18.912 116 18.912M116 193.912C116 193.912 35.5 197.912 43 88.4119" stroke="white" stroke-width="15" stroke-miterlimit="11.4737" stroke-linecap="round"/>
<path d="M116 18.9119C93.5 16.9119 46.979 24.232 43 88.9119" stroke="white" stroke-width="15" stroke-linecap="round"/>
<path d="M115.746 186.416C111.606 186.557 108.364 190.026 108.504 194.166C108.645 198.306 112.114 201.548 116.254 201.408L115.746 186.416ZM117.108 83.9942C113.011 83.3823 109.194 86.2074 108.582 90.3041C107.97 94.4008 110.795 98.2178 114.892 98.8296L117.108 83.9942ZM116.254 201.408C149.934 200.266 171.904 174.199 174.467 146.926C175.759 133.182 172.17 118.901 162.574 107.234C152.959 95.5441 137.826 87.0885 117.108 83.9942L114.892 98.8296C132.674 101.485 144.166 108.467 150.989 116.762C157.83 125.079 160.491 135.33 159.533 145.523C157.596 166.125 141.066 185.558 115.746 186.416L116.254 201.408Z" fill="white"/>
<path d="M116 91.4119C60 84.4119 58 18.912 116 18.912M116 193.912C116 193.912 35.5 197.912 43 88.4119" stroke="white" stroke-width="15" stroke-miterlimit="11.4737" stroke-linecap="round"/>
<path d="M116 18.9119C93.5 16.9119 46.979 24.232 43 88.9119" stroke="white" stroke-width="15" stroke-linecap="round"/>
<circle cx="40" cy="176.912" r="22.5" stroke="white" stroke-width="15"/>
</mask>
<g mask="url(#mask1_108_117)">
<rect x="3" y="2" width="197" height="216" fill="url(#paint1_linear_108_117)" fill-opacity="0.2"/>
</g>
</g>
<defs>
<filter id="filter0_f_108_117" x="0" y="1.13397" width="184.721" height="215.778" filterUnits="userSpaceOnUse" color-interpolation-filters="sRGB">
<feFlood flood-opacity="0" result="BackgroundImageFix"/>
<feBlend mode="normal" in="SourceGraphic" in2="BackgroundImageFix" result="shape"/>
<feGaussianBlur stdDeviation="5" result="effect1_foregroundBlur_108_117"/>
</filter>
<linearGradient id="paint0_linear_108_117" x1="200" y1="2" x2="2.99999" y2="234.5" gradientUnits="userSpaceOnUse">
<stop stop-color="#FAFF00"/>
<stop offset="1" stop-color="#00D1FF"/>
</linearGradient>
<linearGradient id="paint1_linear_108_117" x1="200" y1="2" x2="2.99999" y2="234.5" gradientUnits="userSpaceOnUse">
<stop stop-color="#FAFF00"/>
<stop offset="1" stop-color="#00D1FF"/>
</linearGradient>
</defs>
</svg>
