<svg width="250" height="250" viewBox="0 0 250 250" fill="none" xmlns="http://www.w3.org/2000/svg">
<mask id="mask0_177_2" style="mask-type:alpha" maskUnits="userSpaceOnUse" x="46" y="41" width="155" height="186">
<path d="M144.864 216.914C142.657 216.989 140.927 218.84 141.002 221.047C141.077 223.255 142.928 224.984 145.136 224.91L144.864 216.914ZM145.591 114.456C143.406 114.129 141.37 115.636 141.044 117.821C140.718 120.006 142.224 122.042 144.409 122.368L145.591 114.456ZM145.136 224.91C176.865 223.834 197.565 199.315 199.982 173.599C201.196 160.683 197.824 147.342 188.871 136.457C179.907 125.56 165.624 117.448 145.591 114.456L144.409 122.368C162.876 125.126 175.218 132.452 182.692 141.539C190.176 150.638 193.054 161.828 192.018 172.85C189.935 195.009 172.135 215.99 144.864 216.914L145.136 224.91Z" fill="#007CC1"/>
<path d="M145 118.412C89 111.412 87 45.912 145 45.912M145 220.912C145 220.912 64.5 224.912 72 115.412" stroke="#007CC1" stroke-width="8" stroke-miterlimit="11.4737" stroke-linecap="round"/>
<path d="M145 45.912C122.5 43.912 75.979 51.2321 72 115.912" stroke="#007CC1" stroke-width="8" stroke-linecap="round"/>
<path d="M144.864 216.914C142.657 216.989 140.927 218.84 141.002 221.047C141.077 223.255 142.928 224.984 145.136 224.91L144.864 216.914ZM145.591 114.456C143.406 114.129 141.37 115.636 141.044 117.821C140.718 120.006 142.224 122.042 144.409 122.368L145.591 114.456ZM145.136 224.91C176.865 223.834 197.565 199.315 199.982 173.599C201.196 160.683 197.824 147.342 188.871 136.457C179.907 125.56 165.624 117.448 145.591 114.456L144.409 122.368C162.876 125.126 175.218 132.452 182.692 141.539C190.176 150.638 193.054 161.828 192.018 172.85C189.935 195.009 172.135 215.99 144.864 216.914L145.136 224.91Z" fill="#007CC1"/>
<path d="M145 118.412C89 111.412 87 45.912 145 45.912M145 220.912C145 220.912 64.5 224.912 72 115.412" stroke="#007CC1" stroke-width="8" stroke-miterlimit="11.4737" stroke-linecap="round"/>
<path d="M145 45.912C122.5 43.912 75.979 51.2321 72 115.912" stroke="#007CC1" stroke-width="8" stroke-linecap="round"/>
<circle cx="69" cy="203.912" r="19" stroke="#007CC1" stroke-width="8"/>
</mask>
<g mask="url(#mask0_177_2)">
<rect x="32" y="29" width="197" height="216" fill="#01FFDD"/>
</g>
<g filter="url(#filter0_f_177_2)">
<mask id="mask1_177_2" style="mask-type:alpha" maskUnits="userSpaceOnUse" x="39" y="38" width="165" height="196">
<path d="M144.746 213.416C140.606 213.557 137.364 217.026 137.504 221.166C137.645 225.306 141.114 228.548 145.254 228.408L144.746 213.416ZM146.108 110.994C142.011 110.382 138.194 113.207 137.582 117.304C136.97 121.401 139.795 125.218 143.892 125.83L146.108 110.994ZM145.254 228.408C178.934 227.266 200.904 201.199 203.467 173.926C204.759 160.182 201.17 145.901 191.574 134.234C181.959 122.544 166.826 114.088 146.108 110.994L143.892 125.83C161.674 128.485 173.166 135.467 179.989 143.762C186.83 152.079 189.491 162.33 188.533 172.523C186.596 193.125 170.066 212.558 144.746 213.416L145.254 228.408Z" fill="white"/>
<path d="M145 118.412C89 111.412 87 45.912 145 45.912M145 220.912C145 220.912 64.5 224.912 72 115.412" stroke="white" stroke-width="15" stroke-miterlimit="11.4737" stroke-linecap="round"/>
<path d="M145 45.912C122.5 43.912 75.979 51.2321 72 115.912" stroke="white" stroke-width="15" stroke-linecap="round"/>
<path d="M144.746 213.416C140.606 213.557 137.364 217.026 137.504 221.166C137.645 225.306 141.114 228.548 145.254 228.408L144.746 213.416ZM146.108 110.994C142.011 110.382 138.194 113.207 137.582 117.304C136.97 121.401 139.795 125.218 143.892 125.83L146.108 110.994ZM145.254 228.408C178.934 227.266 200.904 201.199 203.467 173.926C204.759 160.182 201.17 145.901 191.574 134.234C181.959 122.544 166.826 114.088 146.108 110.994L143.892 125.83C161.674 128.485 173.166 135.467 179.989 143.762C186.83 152.079 189.491 162.33 188.533 172.523C186.596 193.125 170.066 212.558 144.746 213.416L145.254 228.408Z" fill="white"/>
<path d="M145 118.412C89 111.412 87 45.912 145 45.912M145 220.912C145 220.912 64.5 224.912 72 115.412" stroke="white" stroke-width="15" stroke-miterlimit="11.4737" stroke-linecap="round"/>
<path d="M145 45.912C122.5 43.912 75.979 51.2321 72 115.912" stroke="white" stroke-width="15" stroke-linecap="round"/>
<circle cx="69" cy="203.912" r="22.5" stroke="white" stroke-width="15"/>
</mask>
<g mask="url(#mask1_177_2)">
<rect x="32" y="29" width="197" height="216" fill="#01FFDD" fill-opacity="0.2"/>
</g>
</g>
<defs>
<filter id="filter0_f_177_2" x="29" y="28.134" width="184.721" height="215.778" filterUnits="userSpaceOnUse" color-interpolation-filters="sRGB">
<feFlood flood-opacity="0" result="BackgroundImageFix"/>
<feBlend mode="normal" in="SourceGraphic" in2="BackgroundImageFix" result="shape"/>
<feGaussianBlur stdDeviation="5" result="effect1_foregroundBlur_177_2"/>
</filter>
</defs>
</svg>
