<svg width="1920" height="2160" viewBox="0 0 1920 2160" fill="none" xmlns="http://www.w3.org/2000/svg">
<g clip-path="url(#clip0_131_121)">
<rect x="398" y="474" width="26" height="149" fill="url(#paint0_linear_131_121)" fill-opacity="0.1"/>
<rect x="189" y="24" width="26" height="149" fill="url(#paint1_linear_131_121)" fill-opacity="0.1"/>
<rect x="1856" y="513" width="26" height="149" fill="url(#paint2_linear_131_121)" fill-opacity="0.1"/>
<rect x="1647" y="63" width="26" height="149" fill="url(#paint3_linear_131_121)" fill-opacity="0.1"/>
<mask id="mask0_131_121" style="mask-type:alpha" maskUnits="userSpaceOnUse" x="1794" y="67" width="116" height="1960">
<path d="M1804 67H1884L1902.4 85.4V130.4L1883.8 149H1819.2V207H1804V67ZM1877.4 135.8L1887.4 126V90L1877.4 80.2H1819.2V135.8H1877.4ZM1903.2 424.2V467H1888V428.4L1868.8 408.2H1819.2V467H1804V327H1884L1902.4 345.4V389.6L1886.2 405.8L1903.2 424.2ZM1819.2 395H1877.4L1887.4 385.2V350L1877.4 340.2H1819.2V395ZM1802 705V609L1824 587H1887.2L1909.2 609V705L1887.2 727H1824L1802 705ZM1880.4 713.4L1894 700V614L1880.4 600.6H1830.8L1817.2 614V700L1830.8 713.4H1880.4ZM1795 965V945.2H1809.8V960L1823.4 973.4H1857.6L1869 962.2V847H1884.2V967L1864.2 987H1817L1795 965ZM1804 1107H1894.4V1120.6H1819.2V1169.8H1888.6V1183.4H1819.2V1233.4H1894.4V1247H1804V1107ZM1802 1485V1389L1824 1367H1884L1905.2 1388.2V1401H1890V1393.2L1877.2 1380.6H1830.8L1817.2 1394V1480L1830.8 1493.4H1877.2L1890 1480.8V1473H1905.2V1485.8L1884 1507H1824L1802 1485ZM1836.4 1640.4H1794V1627H1894V1640.4H1851.6V1767H1836.4V1640.4ZM1801 2008.6V1995.8H1816V2003.6L1825.6 2013.4H1873.6L1883.6 2003.2V1971.8L1873.6 1962H1819.8L1801.4 1943.6V1905.4L1819.8 1887H1878.6L1897 1905.4V1918.4H1882.2V1910.4L1872.2 1900.6H1826.4L1816.4 1910.4V1938.6L1826.4 1948.4H1880.2L1898.6 1966.8V2008.2L1879.8 2027H1819.4L1801 2008.6Z" fill="#00A3FF" fill-opacity="0.4"/>
</mask>
<g mask="url(#mask0_131_121)">
<rect x="1788" width="268" height="1080" fill="url(#paint4_linear_131_121)" fill-opacity="0.5"/>
</g>
<g clip-path="url(#clip1_131_121)">
<rect x="417" y="1992" width="26" height="149" fill="url(#paint5_linear_131_121)" fill-opacity="0.1"/>
<rect x="36" y="1453" width="26" height="149" fill="url(#paint6_linear_131_121)" fill-opacity="0.1"/>
<rect x="1716" y="1992" width="26" height="149" fill="url(#paint7_linear_131_121)" fill-opacity="0.1"/>
<rect x="1729" y="1187" width="26" height="149" fill="url(#paint8_linear_131_121)" fill-opacity="0.1"/>
<mask id="mask1_131_121" style="mask-type:alpha" maskUnits="userSpaceOnUse" x="1794" y="59" width="116" height="1960">
<path d="M1804 59H1884L1902.4 77.4V122.4L1883.8 141H1819.2V199H1804V59ZM1877.4 127.8L1887.4 118V82L1877.4 72.2H1819.2V127.8H1877.4ZM1903.2 416.2V459H1888V420.4L1868.8 400.2H1819.2V459H1804V319H1884L1902.4 337.4V381.6L1886.2 397.8L1903.2 416.2ZM1819.2 387H1877.4L1887.4 377.2V342L1877.4 332.2H1819.2V387ZM1802 697V601L1824 579H1887.2L1909.2 601V697L1887.2 719H1824L1802 697ZM1880.4 705.4L1894 692V606L1880.4 592.6H1830.8L1817.2 606V692L1830.8 705.4H1880.4ZM1795 957V937.2H1809.8V952L1823.4 965.4H1857.6L1869 954.2V839H1884.2V959L1864.2 979H1817L1795 957ZM1804 1099H1894.4V1112.6H1819.2V1161.8H1888.6V1175.4H1819.2V1225.4H1894.4V1239H1804V1099ZM1802 1477V1381L1824 1359H1884L1905.2 1380.2V1393H1890V1385.2L1877.2 1372.6H1830.8L1817.2 1386V1472L1830.8 1485.4H1877.2L1890 1472.8V1465H1905.2V1477.8L1884 1499H1824L1802 1477ZM1836.4 1632.4H1794V1619H1894V1632.4H1851.6V1759H1836.4V1632.4ZM1801 2000.6V1987.8H1816V1995.6L1825.6 2005.4H1873.6L1883.6 1995.2V1963.8L1873.6 1954H1819.8L1801.4 1935.6V1897.4L1819.8 1879H1878.6L1897 1897.4V1910.4H1882.2V1902.4L1872.2 1892.6H1826.4L1816.4 1902.4V1930.6L1826.4 1940.4H1880.2L1898.6 1958.8V2000.2L1879.8 2019H1819.4L1801 2000.6Z" fill="#00A3FF" fill-opacity="0.4"/>
</mask>
<g mask="url(#mask1_131_121)">
<rect x="1922" y="2160" width="268" height="1080" transform="rotate(-180 1922 2160)" fill="url(#paint9_linear_131_121)" fill-opacity="0.5"/>
</g>
</g>
<rect x="870" y="974" width="26" height="149" fill="url(#paint10_linear_131_121)" fill-opacity="0.1"/>
</g>
<defs>
<linearGradient id="paint0_linear_131_121" x1="411" y1="474" x2="411" y2="623" gradientUnits="userSpaceOnUse">
<stop stop-color="#FF0000" stop-opacity="0.61"/>
<stop offset="1" stop-color="#00D1FF" stop-opacity="0.62"/>
</linearGradient>
<linearGradient id="paint1_linear_131_121" x1="202" y1="24" x2="202" y2="173" gradientUnits="userSpaceOnUse">
<stop stop-color="#FF0000" stop-opacity="0.61"/>
<stop offset="1" stop-color="#00D1FF" stop-opacity="0.62"/>
</linearGradient>
<linearGradient id="paint2_linear_131_121" x1="1869" y1="513" x2="1869" y2="662" gradientUnits="userSpaceOnUse">
<stop stop-color="#FF0000" stop-opacity="0.61"/>
<stop offset="1" stop-color="#00D1FF" stop-opacity="0.62"/>
</linearGradient>
<linearGradient id="paint3_linear_131_121" x1="1660" y1="63" x2="1660" y2="212" gradientUnits="userSpaceOnUse">
<stop stop-color="#FF0000" stop-opacity="0.61"/>
<stop offset="1" stop-color="#00D1FF" stop-opacity="0.62"/>
</linearGradient>
<linearGradient id="paint4_linear_131_121" x1="1922" y1="-58.5" x2="1754" y2="1205.5" gradientUnits="userSpaceOnUse">
<stop stop-color="#FF0000"/>
<stop offset="1" stop-color="#00FF38"/>
</linearGradient>
<linearGradient id="paint5_linear_131_121" x1="430" y1="1992" x2="430" y2="2141" gradientUnits="userSpaceOnUse">
<stop stop-color="#FF0000" stop-opacity="0.61"/>
<stop offset="1" stop-color="#00D1FF" stop-opacity="0.62"/>
</linearGradient>
<linearGradient id="paint6_linear_131_121" x1="49" y1="1453" x2="49" y2="1602" gradientUnits="userSpaceOnUse">
<stop stop-color="#FF0000" stop-opacity="0.61"/>
<stop offset="1" stop-color="#00D1FF" stop-opacity="0.62"/>
</linearGradient>
<linearGradient id="paint7_linear_131_121" x1="1729" y1="1992" x2="1729" y2="2141" gradientUnits="userSpaceOnUse">
<stop stop-color="#FF0000" stop-opacity="0.61"/>
<stop offset="1" stop-color="#00D1FF" stop-opacity="0.62"/>
</linearGradient>
<linearGradient id="paint8_linear_131_121" x1="1742" y1="1187" x2="1742" y2="1336" gradientUnits="userSpaceOnUse">
<stop stop-color="#FF0000" stop-opacity="0.61"/>
<stop offset="1" stop-color="#00D1FF" stop-opacity="0.62"/>
</linearGradient>
<linearGradient id="paint9_linear_131_121" x1="2056" y1="2101.5" x2="1888" y2="3365.5" gradientUnits="userSpaceOnUse">
<stop stop-color="#00A3FF"/>
<stop offset="1" stop-color="#00FF38"/>
</linearGradient>
<linearGradient id="paint10_linear_131_121" x1="883" y1="974" x2="883" y2="1123" gradientUnits="userSpaceOnUse">
<stop stop-color="#FF0000" stop-opacity="0.61"/>
<stop offset="1" stop-color="#00D1FF" stop-opacity="0.62"/>
</linearGradient>
<clipPath id="clip0_131_121">
<rect width="1920" height="2160" fill="white"/>
</clipPath>
<clipPath id="clip1_131_121">
<rect width="1920" height="1080" fill="white" transform="translate(4 1080)"/>
</clipPath>
</defs>
</svg>
