<svg width="1920" height="1380" viewBox="0 0 1920 1380" fill="none" xmlns="http://www.w3.org/2000/svg">
<rect width="1920" height="1380" fill="#101010"/>
<g filter="url(#filter0_f_118_2)">
<mask id="mask0_118_2" style="mask-type:alpha" maskUnits="userSpaceOnUse" x="381" y="381" width="1156" height="280">
<path d="M381 628.2V611.4H396.6V622.6L420.6 646.6H521.8L545.8 621.8V548.2L521.8 524.2H414.2L381.8 491.8V413.8L414.6 381H525.4L558.2 413.8V431H542.6V419.4L518.6 395.4H421.4L397.4 419.4V486.2L421 509.8H528.6L561.4 542.6V627.4L527.8 661H413.8L381 628.2ZM625.281 381H640.881V513.8H718.881L790.081 381H806.881L732.081 520.6L812.481 661H795.681L718.881 528.2H640.881V661H625.281V381ZM862.438 381H878.038V661H862.438V381ZM951.844 381H967.444V646.6H1109.84V661H951.844V381ZM1159.66 381H1175.26V646.6H1317.66V661H1159.66V381ZM1355.61 628.2V611.4H1371.21V622.6L1395.21 646.6H1496.41L1520.41 621.8V548.2L1496.41 524.2H1388.81L1356.41 491.8V413.8L1389.21 381H1500.01L1532.81 413.8V431H1517.21V419.4L1493.21 395.4H1396.01L1372.01 419.4V486.2L1395.61 509.8H1503.21L1536.01 542.6V627.4L1502.41 661H1388.41L1355.61 628.2Z" fill="black"/>
<path d="M381 628.2H371V632.342L373.929 635.271L381 628.2ZM381 611.4V601.4H371V611.4H381ZM396.6 611.4H406.6V601.4H396.6V611.4ZM396.6 622.6H386.6V626.742L389.529 629.671L396.6 622.6ZM420.6 646.6L413.529 653.671L416.458 656.6H420.6V646.6ZM521.8 646.6V656.6H526.038L528.986 653.554L521.8 646.6ZM545.8 621.8L552.986 628.754L555.8 625.846V621.8H545.8ZM545.8 548.2H555.8V544.058L552.871 541.129L545.8 548.2ZM521.8 524.2L528.871 517.129L525.942 514.2H521.8V524.2ZM414.2 524.2L407.129 531.271L410.058 534.2H414.2V524.2ZM381.8 491.8H371.8V495.942L374.729 498.871L381.8 491.8ZM381.8 413.8L374.729 406.729L371.8 409.658V413.8H381.8ZM414.6 381V371H410.458L407.529 373.929L414.6 381ZM525.4 381L532.471 373.929L529.542 371H525.4V381ZM558.2 413.8H568.2V409.658L565.271 406.729L558.2 413.8ZM558.2 431V441H568.2V431H558.2ZM542.6 431H532.6V441H542.6V431ZM542.6 419.4H552.6V415.258L549.671 412.329L542.6 419.4ZM518.6 395.4L525.671 388.329L522.742 385.4H518.6V395.4ZM421.4 395.4V385.4H417.258L414.329 388.329L421.4 395.4ZM397.4 419.4L390.329 412.329L387.4 415.258V419.4H397.4ZM397.4 486.2H387.4V490.342L390.329 493.271L397.4 486.2ZM421 509.8L413.929 516.871L416.858 519.8H421V509.8ZM528.6 509.8L535.671 502.729L532.742 499.8H528.6V509.8ZM561.4 542.6H571.4V538.458L568.471 535.529L561.4 542.6ZM561.4 627.4L568.471 634.471L571.4 631.542V627.4H561.4ZM527.8 661V671H531.942L534.871 668.071L527.8 661ZM413.8 661L406.729 668.071L409.658 671H413.8V661ZM391 628.2V611.4H371V628.2H391ZM381 621.4H396.6V601.4H381V621.4ZM386.6 611.4V622.6H406.6V611.4H386.6ZM389.529 629.671L413.529 653.671L427.671 639.529L403.671 615.529L389.529 629.671ZM420.6 656.6H521.8V636.6H420.6V656.6ZM528.986 653.554L552.986 628.754L538.614 614.846L514.614 639.646L528.986 653.554ZM555.8 621.8V548.2H535.8V621.8H555.8ZM552.871 541.129L528.871 517.129L514.729 531.271L538.729 555.271L552.871 541.129ZM521.8 514.2H414.2V534.2H521.8V514.2ZM421.271 517.129L388.871 484.729L374.729 498.871L407.129 531.271L421.271 517.129ZM391.8 491.8V413.8H371.8V491.8H391.8ZM388.871 420.871L421.671 388.071L407.529 373.929L374.729 406.729L388.871 420.871ZM414.6 391H525.4V371H414.6V391ZM518.329 388.071L551.129 420.871L565.271 406.729L532.471 373.929L518.329 388.071ZM548.2 413.8V431H568.2V413.8H548.2ZM558.2 421H542.6V441H558.2V421ZM552.6 431V419.4H532.6V431H552.6ZM549.671 412.329L525.671 388.329L511.529 402.471L535.529 426.471L549.671 412.329ZM518.6 385.4H421.4V405.4H518.6V385.4ZM414.329 388.329L390.329 412.329L404.471 426.471L428.471 402.471L414.329 388.329ZM387.4 419.4V486.2H407.4V419.4H387.4ZM390.329 493.271L413.929 516.871L428.071 502.729L404.471 479.129L390.329 493.271ZM421 519.8H528.6V499.8H421V519.8ZM521.529 516.871L554.329 549.671L568.471 535.529L535.671 502.729L521.529 516.871ZM551.4 542.6V627.4H571.4V542.6H551.4ZM554.329 620.329L520.729 653.929L534.871 668.071L568.471 634.471L554.329 620.329ZM527.8 651H413.8V671H527.8V651ZM420.871 653.929L388.071 621.129L373.929 635.271L406.729 668.071L420.871 653.929ZM625.281 381V371H615.281V381H625.281ZM640.881 381H650.881V371H640.881V381ZM640.881 513.8H630.881V523.8H640.881V513.8ZM718.881 513.8V523.8H724.866L727.694 518.525L718.881 513.8ZM790.081 381V371H784.096L781.268 376.275L790.081 381ZM806.881 381L815.696 385.723L823.584 371H806.881V381ZM732.081 520.6L723.267 515.877L720.65 520.761L723.403 525.569L732.081 520.6ZM812.481 661V671H829.731L821.159 656.031L812.481 661ZM795.681 661L787.025 666.006L789.913 671H795.681V661ZM718.881 528.2L727.538 523.194L724.65 518.2H718.881V528.2ZM640.881 528.2V518.2H630.881V528.2H640.881ZM640.881 661V671H650.881V661H640.881ZM625.281 661H615.281V671H625.281V661ZM625.281 391H640.881V371H625.281V391ZM630.881 381V513.8H650.881V381H630.881ZM640.881 523.8H718.881V503.8H640.881V523.8ZM727.694 518.525L798.894 385.725L781.268 376.275L710.068 509.075L727.694 518.525ZM790.081 391H806.881V371H790.081V391ZM798.067 376.277L723.267 515.877L740.896 525.323L815.696 385.723L798.067 376.277ZM723.403 525.569L803.803 665.969L821.159 656.031L740.759 515.631L723.403 525.569ZM812.481 651H795.681V671H812.481V651ZM804.338 655.994L727.538 523.194L710.225 533.206L787.025 666.006L804.338 655.994ZM718.881 518.2H640.881V538.2H718.881V518.2ZM630.881 528.2V661H650.881V528.2H630.881ZM640.881 651H625.281V671H640.881V651ZM635.281 661V381H615.281V661H635.281ZM862.438 381V371H852.438V381H862.438ZM878.038 381H888.038V371H878.038V381ZM878.038 661V671H888.038V661H878.038ZM862.438 661H852.438V671H862.438V661ZM862.438 391H878.038V371H862.438V391ZM868.038 381V661H888.038V381H868.038ZM878.038 651H862.438V671H878.038V651ZM872.438 661V381H852.438V661H872.438ZM951.844 381V371H941.844V381H951.844ZM967.444 381H977.444V371H967.444V381ZM967.444 646.6H957.444V656.6H967.444V646.6ZM1109.84 646.6H1119.84V636.6H1109.84V646.6ZM1109.84 661V671H1119.84V661H1109.84ZM951.844 661H941.844V671H951.844V661ZM951.844 391H967.444V371H951.844V391ZM957.444 381V646.6H977.444V381H957.444ZM967.444 656.6H1109.84V636.6H967.444V656.6ZM1099.84 646.6V661H1119.84V646.6H1099.84ZM1109.84 651H951.844V671H1109.84V651ZM961.844 661V381H941.844V661H961.844ZM1159.66 381V371H1149.66V381H1159.66ZM1175.26 381H1185.26V371H1175.26V381ZM1175.26 646.6H1165.26V656.6H1175.26V646.6ZM1317.66 646.6H1327.66V636.6H1317.66V646.6ZM1317.66 661V671H1327.66V661H1317.66ZM1159.66 661H1149.66V671H1159.66V661ZM1159.66 391H1175.26V371H1159.66V391ZM1165.26 381V646.6H1185.26V381H1165.26ZM1175.26 656.6H1317.66V636.6H1175.26V656.6ZM1307.66 646.6V661H1327.66V646.6H1307.66ZM1317.66 651H1159.66V671H1317.66V651ZM1169.66 661V381H1149.66V661H1169.66ZM1355.61 628.2H1345.61V632.342L1348.54 635.271L1355.61 628.2ZM1355.61 611.4V601.4H1345.61V611.4H1355.61ZM1371.21 611.4H1381.21V601.4H1371.21V611.4ZM1371.21 622.6H1361.21V626.742L1364.14 629.671L1371.21 622.6ZM1395.21 646.6L1388.14 653.671L1391.07 656.6H1395.21V646.6ZM1496.41 646.6V656.6H1500.65L1503.6 653.554L1496.41 646.6ZM1520.41 621.8L1527.6 628.754L1530.41 625.846V621.8H1520.41ZM1520.41 548.2H1530.41V544.058L1527.48 541.129L1520.41 548.2ZM1496.41 524.2L1503.48 517.129L1500.55 514.2H1496.41V524.2ZM1388.81 524.2L1381.74 531.271L1384.67 534.2H1388.81V524.2ZM1356.41 491.8H1346.41V495.942L1349.34 498.871L1356.41 491.8ZM1356.41 413.8L1349.34 406.729L1346.41 409.658V413.8H1356.41ZM1389.21 381V371H1385.07L1382.14 373.929L1389.21 381ZM1500.01 381L1507.08 373.929L1504.15 371H1500.01V381ZM1532.81 413.8H1542.81V409.658L1539.88 406.729L1532.81 413.8ZM1532.81 431V441H1542.81V431H1532.81ZM1517.21 431H1507.21V441H1517.21V431ZM1517.21 419.4H1527.21V415.258L1524.28 412.329L1517.21 419.4ZM1493.21 395.4L1500.28 388.329L1497.35 385.4H1493.21V395.4ZM1396.01 395.4V385.4H1391.87L1388.94 388.329L1396.01 395.4ZM1372.01 419.4L1364.94 412.329L1362.01 415.258V419.4H1372.01ZM1372.01 486.2H1362.01V490.342L1364.94 493.271L1372.01 486.2ZM1395.61 509.8L1388.54 516.871L1391.47 519.8H1395.61V509.8ZM1503.21 509.8L1510.28 502.729L1507.35 499.8H1503.21V509.8ZM1536.01 542.6H1546.01V538.458L1543.08 535.529L1536.01 542.6ZM1536.01 627.4L1543.08 634.471L1546.01 631.542V627.4H1536.01ZM1502.41 661V671H1506.55L1509.48 668.071L1502.41 661ZM1388.41 661L1381.34 668.071L1384.27 671H1388.41V661ZM1365.61 628.2V611.4H1345.61V628.2H1365.61ZM1355.61 621.4H1371.21V601.4H1355.61V621.4ZM1361.21 611.4V622.6H1381.21V611.4H1361.21ZM1364.14 629.671L1388.14 653.671L1402.28 639.529L1378.28 615.529L1364.14 629.671ZM1395.21 656.6H1496.41V636.6H1395.21V656.6ZM1503.6 653.554L1527.6 628.754L1513.22 614.846L1489.22 639.646L1503.6 653.554ZM1530.41 621.8V548.2H1510.41V621.8H1530.41ZM1527.48 541.129L1503.48 517.129L1489.34 531.271L1513.34 555.271L1527.48 541.129ZM1496.41 514.2H1388.81V534.2H1496.41V514.2ZM1395.88 517.129L1363.48 484.729L1349.34 498.871L1381.74 531.271L1395.88 517.129ZM1366.41 491.8V413.8H1346.41V491.8H1366.41ZM1363.48 420.871L1396.28 388.071L1382.14 373.929L1349.34 406.729L1363.48 420.871ZM1389.21 391H1500.01V371H1389.21V391ZM1492.94 388.071L1525.74 420.871L1539.88 406.729L1507.08 373.929L1492.94 388.071ZM1522.81 413.8V431H1542.81V413.8H1522.81ZM1532.81 421H1517.21V441H1532.81V421ZM1527.21 431V419.4H1507.21V431H1527.21ZM1524.28 412.329L1500.28 388.329L1486.14 402.471L1510.14 426.471L1524.28 412.329ZM1493.21 385.4H1396.01V405.4H1493.21V385.4ZM1388.94 388.329L1364.94 412.329L1379.08 426.471L1403.08 402.471L1388.94 388.329ZM1362.01 419.4V486.2H1382.01V419.4H1362.01ZM1364.94 493.271L1388.54 516.871L1402.68 502.729L1379.08 479.129L1364.94 493.271ZM1395.61 519.8H1503.21V499.8H1395.61V519.8ZM1496.14 516.871L1528.94 549.671L1543.08 535.529L1510.28 502.729L1496.14 516.871ZM1526.01 542.6V627.4H1546.01V542.6H1526.01ZM1528.94 620.329L1495.34 653.929L1509.48 668.071L1543.08 634.471L1528.94 620.329ZM1502.41 651H1388.41V671H1502.41V651ZM1395.48 653.929L1362.68 621.129L1348.54 635.271L1381.34 668.071L1395.48 653.929Z" fill="#FF0000" fill-opacity="0.42"/>
</mask>
<g mask="url(#mask0_118_2)">
<rect x="352" y="332" width="1237" height="368" fill="url(#paint0_linear_118_2)" fill-opacity="0.3"/>
<rect x="347" y="327" width="1247" height="378" stroke="#FF0000" stroke-opacity="0.42" stroke-width="10"/>
</g>
</g>
<mask id="mask1_118_2" style="mask-type:alpha" maskUnits="userSpaceOnUse" x="381" y="381" width="1156" height="280">
<path d="M381 628.2V611.4H396.6V622.6L420.6 646.6H521.8L545.8 621.8V548.2L521.8 524.2H414.2L381.8 491.8V413.8L414.6 381H525.4L558.2 413.8V431H542.6V419.4L518.6 395.4H421.4L397.4 419.4V486.2L421 509.8H528.6L561.4 542.6V627.4L527.8 661H413.8L381 628.2ZM625.281 381H640.881V513.8H718.881L790.081 381H806.881L732.081 520.6L812.481 661H795.681L718.881 528.2H640.881V661H625.281V381ZM862.438 381H878.038V661H862.438V381ZM951.844 381H967.444V646.6H1109.84V661H951.844V381ZM1159.66 381H1175.26V646.6H1317.66V661H1159.66V381ZM1355.61 628.2V611.4H1371.21V622.6L1395.21 646.6H1496.41L1520.41 621.8V548.2L1496.41 524.2H1388.81L1356.41 491.8V413.8L1389.21 381H1500.01L1532.81 413.8V431H1517.21V419.4L1493.21 395.4H1396.01L1372.01 419.4V486.2L1395.61 509.8H1503.21L1536.01 542.6V627.4L1502.41 661H1388.41L1355.61 628.2Z" fill="black"/>
</mask>
<g mask="url(#mask1_118_2)">
<rect x="352" y="332" width="1237" height="368" fill="url(#paint1_linear_118_2)" fill-opacity="0.5"/>
</g>
<defs>
<filter id="filter0_f_118_2" x="371" y="371" width="1175.01" height="300" filterUnits="userSpaceOnUse" color-interpolation-filters="sRGB">
<feFlood flood-opacity="0" result="BackgroundImageFix"/>
<feBlend mode="normal" in="SourceGraphic" in2="BackgroundImageFix" result="shape"/>
<feGaussianBlur stdDeviation="5" result="effect1_foregroundBlur_118_2"/>
</filter>
<linearGradient id="paint0_linear_118_2" x1="1809" y1="260.5" x2="236" y2="751.5" gradientUnits="userSpaceOnUse">
<stop stop-color="#FAFF00"/>
<stop offset="1" stop-color="#00D1FF"/>
</linearGradient>
<linearGradient id="paint1_linear_118_2" x1="1809" y1="260.5" x2="236" y2="751.5" gradientUnits="userSpaceOnUse">
<stop stop-color="#FAFF00"/>
<stop offset="1" stop-color="#00D1FF"/>
</linearGradient>
</defs>
</svg>
