<svg width="1920" height="1080" viewBox="0 0 1920 1080" fill="none" xmlns="http://www.w3.org/2000/svg">
<circle cx="117.5" cy="106.5" r="0.5" fill="white"/>
<circle cx="88.5" cy="364.5" r="0.5" fill="white"/>
<circle cx="61.5" cy="54.5" r="0.5" fill="white"/>
<circle cx="160.5" cy="211.5" r="0.5" fill="white"/>
<circle cx="256.5" cy="204.5" r="0.5" fill="white"/>
<circle cx="406.5" cy="258.5" r="0.5" fill="white"/>
<circle cx="353.5" cy="54.5" r="0.5" fill="white"/>
<circle cx="361.5" cy="345.5" r="0.5" fill="white"/>
<circle cx="258.5" cy="61.5" r="0.5" fill="white"/>
<circle cx="322.5" cy="168.5" r="0.5" fill="white"/>
<circle cx="341.5" cy="291.5" r="0.5" fill="white"/>
<circle cx="254.5" cy="349.5" r="0.5" fill="white"/>
<circle cx="377.5" cy="125.5" r="0.5" fill="white"/>
<circle cx="158.5" cy="129.5" r="0.5" fill="white"/>
<circle cx="185.5" cy="323.5" r="0.5" fill="white"/>
<circle cx="78.5" cy="219.5" r="0.5" fill="white"/>
<circle cx="50.5" cy="164.5" r="0.5" fill="white"/>
<circle cx="202.5" cy="121.5" r="0.5" fill="white"/>
<circle cx="156.5" cy="54.5" r="0.5" fill="white"/>
<ellipse rx="0.5" ry="0.5" transform="matrix(-0.997134 -0.0756503 0.0558174 -0.998441 353.201 409.83)" fill="white"/>
<ellipse rx="0.5" ry="0.5" transform="matrix(-0.997134 -0.0756503 0.0558174 -0.998441 272.68 556.724)" fill="white"/>
<ellipse rx="0.5" ry="0.5" transform="matrix(-0.997134 -0.0756503 0.0558174 -0.998441 176.258 556.859)" fill="white"/>
<ellipse rx="0.5" ry="0.5" transform="matrix(-0.997134 -0.0756503 0.0558174 -0.998441 79.834 407.428)" fill="white"/>
<ellipse rx="0.5" ry="0.5" transform="matrix(-0.997134 -0.0756503 0.0558174 -0.998441 108.61 587.828)" fill="white"/>
<ellipse rx="0.5" ry="0.5" transform="matrix(-0.997134 -0.0756503 0.0558174 -0.998441 96.3975 463.124)" fill="white"/>
<ellipse rx="0.5" ry="0.5" transform="matrix(-0.997134 -0.0756503 0.0558174 -0.998441 186.352 411.498)" fill="white"/>
<ellipse rx="0.5" ry="0.5" transform="matrix(-0.997134 -0.0756503 0.0558174 -0.998441 51.3565 626.463)" fill="white"/>
<ellipse rx="0.5" ry="0.5" transform="matrix(-0.997134 -0.0756503 0.0558174 -0.998441 253.95 442.986)" fill="white"/>
<ellipse rx="0.5" ry="0.5" transform="matrix(-0.997134 -0.0756503 0.0558174 -0.998441 354.928 554.942)" fill="white"/>
<ellipse rx="0.5" ry="0.5" transform="matrix(-0.997134 -0.0756503 0.0558174 -0.998441 379.753 612.411)" fill="white"/>
<circle cx="483.5" cy="108.5" r="0.5" fill="white"/>
<circle cx="454.5" cy="366.5" r="0.5" fill="white"/>
<circle cx="427.5" cy="56.5" r="0.5" fill="white"/>
<circle cx="526.5" cy="213.5" r="0.5" fill="white"/>
<circle cx="622.5" cy="206.5" r="0.5" fill="white"/>
<circle cx="773.5" cy="260.5" r="0.5" fill="white"/>
<circle cx="719.5" cy="56.5" r="0.5" fill="white"/>
<circle cx="727.5" cy="348.5" r="0.5" fill="white"/>
<circle cx="624.5" cy="64.5" r="0.5" fill="white"/>
<circle cx="688.5" cy="170.5" r="0.5" fill="white"/>
<circle cx="707.5" cy="293.5" r="0.5" fill="white"/>
<circle cx="620.5" cy="352.5" r="0.5" fill="white"/>
<circle cx="743.5" cy="127.5" r="0.5" fill="white"/>
<circle cx="524.5" cy="131.5" r="0.5" fill="white"/>
<circle cx="551.5" cy="325.5" r="0.5" fill="white"/>
<circle cx="444.5" cy="221.5" r="0.5" fill="white"/>
<circle cx="497.5" cy="366.5" r="0.5" fill="white"/>
<circle cx="647.5" cy="420.5" r="0.5" fill="white"/>
<circle cx="602.5" cy="507.5" r="0.5" fill="white"/>
<circle cx="582.5" cy="453.5" r="0.5" fill="white"/>
<circle cx="495.5" cy="511.5" r="0.5" fill="white"/>
<circle cx="426.5" cy="485.5" r="0.5" fill="white"/>
<ellipse rx="0.5" ry="0.5" transform="matrix(-0.997134 -0.0756503 0.0558174 -0.998441 594.13 571.659)" fill="white"/>
<ellipse rx="0.5" ry="0.5" transform="matrix(-0.997134 -0.0756503 0.0558174 -0.998441 427.279 573.327)" fill="white"/>
<ellipse rx="0.5" ry="0.5" transform="matrix(-0.997134 -0.0756503 0.0558174 -0.998441 494.879 604.815)" fill="white"/>
<circle cx="695.5" cy="528.5" r="0.5" fill="white"/>
<circle cx="767.5" cy="375.5" r="0.5" fill="white"/>
<circle cx="792.5" cy="487.5" r="0.5" fill="white"/>
<circle cx="685.5" cy="383.5" r="0.5" fill="white"/>
<circle cx="898.5" cy="424.5" r="0.5" fill="white"/>
<circle cx="896.5" cy="570.5" r="0.5" fill="white"/>
<circle cx="827.5" cy="544.5" r="0.5" fill="white"/>
<circle cx="416.5" cy="166.5" r="0.5" fill="white"/>
<circle cx="568.5" cy="124.5" r="0.5" fill="white"/>
<circle cx="522.5" cy="56.5" r="0.5" fill="white"/>
<circle cx="86.5" cy="54.5" r="0.5" fill="white"/>
<circle cx="57.5" cy="312.5" r="0.5" fill="white"/>
<circle cx="129.5" cy="159.5" r="0.5" fill="white"/>
<circle cx="127.5" cy="77.5" r="0.5" fill="white"/>
<circle cx="154.5" cy="271.5" r="0.5" fill="white"/>
<circle cx="47.5" cy="167.5" r="0.5" fill="white"/>
<circle cx="100.5" cy="312.5" r="0.5" fill="white"/>
<circle cx="185.5" cy="399.5" r="0.5" fill="white"/>
<circle cx="19.5" cy="112.5" r="0.5" fill="white"/>
<circle cx="171.5" cy="70.5" r="0.5" fill="white"/>
<circle cx="822.5" cy="293.5" r="0.5" fill="white"/>
<circle cx="894.5" cy="141.5" r="0.5" fill="white"/>
<circle cx="892.5" cy="58.5" r="0.5" fill="white"/>
<circle cx="919.5" cy="253.5" r="0.5" fill="white"/>
<circle cx="812.5" cy="149.5" r="0.5" fill="white"/>
<circle cx="784.5" cy="93.5" r="0.5" fill="white"/>
<circle cx="937.5" cy="51.5" r="0.5" fill="white"/>
<circle cx="1068.5" cy="232.5" r="0.5" fill="white"/>
<circle cx="1140.5" cy="79.5" r="0.5" fill="white"/>
<circle cx="1236.5" cy="72.5" r="0.5" fill="white"/>
<circle cx="1386.5" cy="126.5" r="0.5" fill="white"/>
<circle cx="1341.5" cy="213.5" r="0.5" fill="white"/>
<circle cx="1302.5" cy="36.5" r="0.5" fill="white"/>
<circle cx="1321.5" cy="159.5" r="0.5" fill="white"/>
<circle cx="1234.5" cy="217.5" r="0.5" fill="white"/>
<circle cx="1165.5" cy="191.5" r="0.5" fill="white"/>
<circle cx="1058.5" cy="87.5" r="0.5" fill="white"/>
<circle cx="1030.5" cy="32.5" r="0.5" fill="white"/>
<ellipse rx="0.5" ry="0.5" transform="matrix(-0.997134 -0.0756503 0.0558174 -0.998441 1333.2 277.83)" fill="white"/>
<ellipse rx="0.5" ry="0.5" transform="matrix(-0.997134 -0.0756503 0.0558174 -0.998441 1252.68 424.724)" fill="white"/>
<ellipse rx="0.5" ry="0.5" transform="matrix(-0.997134 -0.0756503 0.0558174 -0.998441 1156.26 424.858)" fill="white"/>
<ellipse rx="0.5" ry="0.5" transform="matrix(-0.997134 -0.0756503 0.0558174 -0.998441 1059.83 275.428)" fill="white"/>
<ellipse rx="0.5" ry="0.5" transform="matrix(-0.997134 -0.0756503 0.0558174 -0.998441 1088.61 455.828)" fill="white"/>
<ellipse rx="0.5" ry="0.5" transform="matrix(-0.997134 -0.0756503 0.0558174 -0.998441 1076.4 331.124)" fill="white"/>
<ellipse rx="0.5" ry="0.5" transform="matrix(-0.997134 -0.0756503 0.0558174 -0.998441 1166.35 279.498)" fill="white"/>
<ellipse rx="0.5" ry="0.5" transform="matrix(-0.997134 -0.0756503 0.0558174 -0.998441 1031.36 494.463)" fill="white"/>
<ellipse rx="0.5" ry="0.5" transform="matrix(-0.997134 -0.0756503 0.0558174 -0.998441 1233.95 310.986)" fill="white"/>
<ellipse rx="0.5" ry="0.5" transform="matrix(-0.997134 -0.0756503 0.0558174 -0.998441 1334.93 422.942)" fill="white"/>
<ellipse rx="0.5" ry="0.5" transform="matrix(-0.997134 -0.0756503 0.0558174 -0.998441 1359.75 480.411)" fill="white"/>
<circle cx="1434.5" cy="234.5" r="0.5" fill="white"/>
<circle cx="1506.5" cy="81.5" r="0.5" fill="white"/>
<circle cx="1602.5" cy="74.5" r="0.5" fill="white"/>
<circle cx="1753.5" cy="128.5" r="0.5" fill="white"/>
<circle cx="1707.5" cy="216.5" r="0.5" fill="white"/>
<circle cx="1668.5" cy="38.5" r="0.5" fill="white"/>
<circle cx="1687.5" cy="161.5" r="0.5" fill="white"/>
<circle cx="1600.5" cy="220.5" r="0.5" fill="white"/>
<circle cx="1531.5" cy="193.5" r="0.5" fill="white"/>
<circle cx="1424.5" cy="89.5" r="0.5" fill="white"/>
<circle cx="1477.5" cy="234.5" r="0.5" fill="white"/>
<circle cx="1627.5" cy="288.5" r="0.5" fill="white"/>
<circle cx="1582.5" cy="375.5" r="0.5" fill="white"/>
<circle cx="1562.5" cy="321.5" r="0.5" fill="white"/>
<circle cx="1475.5" cy="379.5" r="0.5" fill="white"/>
<circle cx="1406.5" cy="353.5" r="0.5" fill="white"/>
<ellipse rx="0.5" ry="0.5" transform="matrix(-0.997134 -0.0756503 0.0558174 -0.998441 1574.13 439.659)" fill="white"/>
<ellipse rx="0.5" ry="0.5" transform="matrix(-0.997134 -0.0756503 0.0558174 -0.998441 1407.28 441.327)" fill="white"/>
<ellipse rx="0.5" ry="0.5" transform="matrix(-0.997134 -0.0756503 0.0558174 -0.998441 1474.88 472.815)" fill="white"/>
<circle cx="1675.5" cy="396.5" r="0.5" fill="white"/>
<circle cx="1747.5" cy="243.5" r="0.5" fill="white"/>
<circle cx="1772.5" cy="355.5" r="0.5" fill="white"/>
<circle cx="1665.5" cy="251.5" r="0.5" fill="white"/>
<circle cx="1878.5" cy="292.5" r="0.5" fill="white"/>
<circle cx="1876.5" cy="438.5" r="0.5" fill="white"/>
<circle cx="1807.5" cy="412.5" r="0.5" fill="white"/>
<circle cx="1396.5" cy="34.5" r="0.5" fill="white"/>
<circle cx="1802.5" cy="161.5" r="0.5" fill="white"/>
<circle cx="1874.5" cy="9.5" r="0.5" fill="white"/>
<circle cx="1899.5" cy="121.5" r="0.5" fill="white"/>
<circle cx="1792.5" cy="17.5" r="0.5" fill="white"/>
<circle cx="87.5" cy="720.5" r="0.5" fill="white"/>
<circle cx="237.5" cy="774.5" r="0.5" fill="white"/>
<circle cx="184.5" cy="570.5" r="0.5" fill="white"/>
<circle cx="192.5" cy="861.5" r="0.5" fill="white"/>
<circle cx="89.5" cy="577.5" r="0.5" fill="white"/>
<circle cx="153.5" cy="684.5" r="0.5" fill="white"/>
<circle cx="172.5" cy="807.5" r="0.5" fill="white"/>
<circle cx="85.5" cy="865.5" r="0.5" fill="white"/>
<circle cx="208.5" cy="641.5" r="0.5" fill="white"/>
<circle cx="16.5" cy="839.5" r="0.5" fill="white"/>
<circle cx="33.5" cy="637.5" r="0.5" fill="white"/>
<ellipse rx="0.5" ry="0.5" transform="matrix(-0.997134 -0.0756503 0.0558174 -0.998441 184.201 925.83)" fill="white"/>
<ellipse rx="0.5" ry="0.5" transform="matrix(-0.997134 -0.0756503 0.0558174 -0.998441 103.68 1072.72)" fill="white"/>
<ellipse rx="0.5" ry="0.5" transform="matrix(-0.997134 -0.0756503 0.0558174 -0.998441 17.3516 927.498)" fill="white"/>
<ellipse rx="0.5" ry="0.5" transform="matrix(-0.997134 -0.0756503 0.0558174 -0.998441 84.9502 958.986)" fill="white"/>
<ellipse rx="0.5" ry="0.5" transform="matrix(-0.997134 -0.0756503 0.0558174 -0.998441 185.928 1070.94)" fill="white"/>
<circle cx="314.5" cy="624.5" r="0.5" fill="white"/>
<circle cx="285.5" cy="882.5" r="0.5" fill="white"/>
<circle cx="258.5" cy="572.5" r="0.5" fill="white"/>
<circle cx="357.5" cy="729.5" r="0.5" fill="white"/>
<circle cx="453.5" cy="722.5" r="0.5" fill="white"/>
<circle cx="604.5" cy="776.5" r="0.5" fill="white"/>
<circle cx="550.5" cy="572.5" r="0.5" fill="white"/>
<circle cx="558.5" cy="864.5" r="0.5" fill="white"/>
<circle cx="455.5" cy="580.5" r="0.5" fill="white"/>
<circle cx="519.5" cy="686.5" r="0.5" fill="white"/>
<circle cx="538.5" cy="809.5" r="0.5" fill="white"/>
<circle cx="451.5" cy="868.5" r="0.5" fill="white"/>
<circle cx="574.5" cy="643.5" r="0.5" fill="white"/>
<circle cx="355.5" cy="647.5" r="0.5" fill="white"/>
<circle cx="382.5" cy="841.5" r="0.5" fill="white"/>
<circle cx="275.5" cy="737.5" r="0.5" fill="white"/>
<circle cx="328.5" cy="882.5" r="0.5" fill="white"/>
<circle cx="478.5" cy="936.5" r="0.5" fill="white"/>
<circle cx="433.5" cy="1023.5" r="0.5" fill="white"/>
<circle cx="413.5" cy="969.5" r="0.5" fill="white"/>
<circle cx="326.5" cy="1027.5" r="0.5" fill="white"/>
<circle cx="257.5" cy="1001.5" r="0.5" fill="white"/>
<circle cx="526.5" cy="1044.5" r="0.5" fill="white"/>
<circle cx="598.5" cy="891.5" r="0.5" fill="white"/>
<circle cx="623.5" cy="1003.5" r="0.5" fill="white"/>
<circle cx="516.5" cy="899.5" r="0.5" fill="white"/>
<circle cx="729.5" cy="940.5" r="0.5" fill="white"/>
<circle cx="658.5" cy="1060.5" r="0.5" fill="white"/>
<circle cx="247.5" cy="682.5" r="0.5" fill="white"/>
<circle cx="399.5" cy="640.5" r="0.5" fill="white"/>
<circle cx="353.5" cy="572.5" r="0.5" fill="white"/>
<circle cx="653.5" cy="809.5" r="0.5" fill="white"/>
<circle cx="725.5" cy="657.5" r="0.5" fill="white"/>
<circle cx="723.5" cy="574.5" r="0.5" fill="white"/>
<circle cx="750.5" cy="769.5" r="0.5" fill="white"/>
<circle cx="643.5" cy="665.5" r="0.5" fill="white"/>
<circle cx="615.5" cy="609.5" r="0.5" fill="white"/>
<circle cx="768.5" cy="567.5" r="0.5" fill="white"/>
<circle cx="723.5" cy="594.5" r="0.5" fill="white"/>
<circle cx="694.5" cy="852.5" r="0.5" fill="white"/>
<circle cx="667.5" cy="542.5" r="0.5" fill="white"/>
<circle cx="766.5" cy="699.5" r="0.5" fill="white"/>
<circle cx="862.5" cy="692.5" r="0.5" fill="white"/>
<circle cx="1012.5" cy="746.5" r="0.5" fill="white"/>
<circle cx="959.5" cy="542.5" r="0.5" fill="white"/>
<circle cx="967.5" cy="833.5" r="0.5" fill="white"/>
<circle cx="864.5" cy="549.5" r="0.5" fill="white"/>
<circle cx="928.5" cy="656.5" r="0.5" fill="white"/>
<circle cx="947.5" cy="779.5" r="0.5" fill="white"/>
<circle cx="860.5" cy="837.5" r="0.5" fill="white"/>
<circle cx="983.5" cy="613.5" r="0.5" fill="white"/>
<circle cx="764.5" cy="617.5" r="0.5" fill="white"/>
<circle cx="791.5" cy="811.5" r="0.5" fill="white"/>
<circle cx="684.5" cy="707.5" r="0.5" fill="white"/>
<circle cx="656.5" cy="652.5" r="0.5" fill="white"/>
<circle cx="808.5" cy="609.5" r="0.5" fill="white"/>
<circle cx="762.5" cy="542.5" r="0.5" fill="white"/>
<circle cx="1001.5" cy="355.5" r="0.5" fill="white"/>
<circle cx="942.5" cy="378.5" r="0.5" fill="white"/>
<circle cx="1038.5" cy="360.5" r="0.5" fill="white"/>
<circle cx="938.5" cy="428.5" r="0.5" fill="white"/>
<circle cx="982.5" cy="420.5" r="0.5" fill="white"/>
<circle cx="936.5" cy="353.5" r="0.5" fill="white"/>
<ellipse rx="0.5" ry="0.5" transform="matrix(-0.997134 -0.0756503 0.0558174 -0.998441 959.201 897.83)" fill="white"/>
<ellipse rx="0.5" ry="0.5" transform="matrix(-0.997134 -0.0756503 0.0558174 -0.998441 878.68 1044.72)" fill="white"/>
<ellipse rx="0.5" ry="0.5" transform="matrix(-0.997134 -0.0756503 0.0558174 -0.998441 782.258 1044.86)" fill="white"/>
<ellipse rx="0.5" ry="0.5" transform="matrix(-0.997134 -0.0756503 0.0558174 -0.998441 685.834 895.428)" fill="white"/>
<ellipse rx="0.5" ry="0.5" transform="matrix(-0.997134 -0.0756503 0.0558174 -0.998441 714.61 1075.83)" fill="white"/>
<ellipse rx="0.5" ry="0.5" transform="matrix(-0.997134 -0.0756503 0.0558174 -0.998441 702.398 951.124)" fill="white"/>
<ellipse rx="0.5" ry="0.5" transform="matrix(-0.997134 -0.0756503 0.0558174 -0.998441 792.352 899.498)" fill="white"/>
<ellipse rx="0.5" ry="0.5" transform="matrix(-0.997134 -0.0756503 0.0558174 -0.998441 859.95 930.986)" fill="white"/>
<ellipse rx="0.5" ry="0.5" transform="matrix(-0.997134 -0.0756503 0.0558174 -0.998441 960.928 1042.94)" fill="white"/>
<circle cx="1089.5" cy="596.5" r="0.5" fill="white"/>
<circle cx="1060.5" cy="854.5" r="0.5" fill="white"/>
<circle cx="1033.5" cy="544.5" r="0.5" fill="white"/>
<circle cx="1132.5" cy="701.5" r="0.5" fill="white"/>
<circle cx="1228.5" cy="694.5" r="0.5" fill="white"/>
<circle cx="1379.5" cy="748.5" r="0.5" fill="white"/>
<circle cx="1325.5" cy="544.5" r="0.5" fill="white"/>
<circle cx="1333.5" cy="836.5" r="0.5" fill="white"/>
<circle cx="1230.5" cy="552.5" r="0.5" fill="white"/>
<circle cx="1294.5" cy="658.5" r="0.5" fill="white"/>
<circle cx="1313.5" cy="781.5" r="0.5" fill="white"/>
<circle cx="1226.5" cy="840.5" r="0.5" fill="white"/>
<circle cx="1349.5" cy="615.5" r="0.5" fill="white"/>
<circle cx="1130.5" cy="619.5" r="0.5" fill="white"/>
<circle cx="1157.5" cy="813.5" r="0.5" fill="white"/>
<circle cx="1050.5" cy="709.5" r="0.5" fill="white"/>
<circle cx="1103.5" cy="854.5" r="0.5" fill="white"/>
<circle cx="1253.5" cy="908.5" r="0.5" fill="white"/>
<circle cx="1208.5" cy="995.5" r="0.5" fill="white"/>
<circle cx="1188.5" cy="941.5" r="0.5" fill="white"/>
<circle cx="1101.5" cy="999.5" r="0.5" fill="white"/>
<circle cx="1032.5" cy="973.5" r="0.5" fill="white"/>
<ellipse rx="0.5" ry="0.5" transform="matrix(-0.997134 -0.0756503 0.0558174 -0.998441 1200.13 1059.66)" fill="white"/>
<ellipse rx="0.5" ry="0.5" transform="matrix(-0.997134 -0.0756503 0.0558174 -0.998441 1033.28 1061.33)" fill="white"/>
<circle cx="1301.5" cy="1016.5" r="0.5" fill="white"/>
<circle cx="1373.5" cy="863.5" r="0.5" fill="white"/>
<circle cx="1398.5" cy="975.5" r="0.5" fill="white"/>
<circle cx="1291.5" cy="871.5" r="0.5" fill="white"/>
<circle cx="1504.5" cy="912.5" r="0.5" fill="white"/>
<circle cx="1502.5" cy="1058.5" r="0.5" fill="white"/>
<circle cx="1433.5" cy="1032.5" r="0.5" fill="white"/>
<circle cx="1022.5" cy="654.5" r="0.5" fill="white"/>
<circle cx="1174.5" cy="612.5" r="0.5" fill="white"/>
<circle cx="1128.5" cy="544.5" r="0.5" fill="white"/>
<circle cx="1428.5" cy="781.5" r="0.5" fill="white"/>
<circle cx="1500.5" cy="629.5" r="0.5" fill="white"/>
<circle cx="1498.5" cy="546.5" r="0.5" fill="white"/>
<circle cx="1525.5" cy="741.5" r="0.5" fill="white"/>
<circle cx="1418.5" cy="637.5" r="0.5" fill="white"/>
<circle cx="1390.5" cy="581.5" r="0.5" fill="white"/>
<circle cx="1543.5" cy="539.5" r="0.5" fill="white"/>
<circle cx="1659.98" cy="456.258" r="0.5" transform="rotate(87.1974 1659.98 456.258)" fill="white"/>
<circle cx="1816.32" cy="520.69" r="0.5" transform="rotate(87.1974 1816.32 520.69)" fill="white"/>
<circle cx="1828" cy="616.233" r="0.5" transform="rotate(87.1974 1828 616.233)" fill="white"/>
<circle cx="1781.4" cy="768.694" r="0.5" transform="rotate(87.1974 1781.4 768.694)" fill="white"/>
<circle cx="1692.3" cy="728.002" r="0.5" transform="rotate(87.1974 1692.3 728.002)" fill="white"/>
<circle cx="1867.19" cy="680.394" r="0.5" transform="rotate(87.1974 1867.19 680.394)" fill="white"/>
<circle cx="1745.26" cy="705.386" r="0.5" transform="rotate(87.1974 1745.26 705.386)" fill="white"/>
<circle cx="1683.08" cy="621.326" r="0.5" transform="rotate(87.1974 1683.08 621.326)" fill="white"/>
<circle cx="1912.82" cy="733.226" r="0.5" transform="rotate(87.1974 1912.82 733.226)" fill="white"/>
<circle cx="1898.12" cy="514.683" r="0.5" transform="rotate(87.1974 1898.12 514.683)" fill="white"/>
<circle cx="1705.67" cy="551.137" r="0.5" transform="rotate(87.1974 1705.67 551.137)" fill="white"/>
<circle cx="1804.32" cy="439.18" r="0.5" transform="rotate(87.1974 1804.32 439.18)" fill="white"/>
<circle cx="1857.88" cy="408.524" r="0.5" transform="rotate(87.1974 1857.88 408.524)" fill="white"/>
<circle cx="1908.26" cy="558.24" r="0.5" transform="rotate(87.1974 1908.26 558.24)" fill="white"/>
<ellipse rx="0.5" ry="0.5" transform="matrix(0.0268044 -0.999641 0.999976 0.00693138 1627.65 722.859)" fill="white"/>
<ellipse rx="0.5" ry="0.5" transform="matrix(0.0268044 -0.999641 0.999976 0.00693138 1476.99 649.615)" fill="white"/>
<ellipse rx="0.5" ry="0.5" transform="matrix(0.0268044 -0.999641 0.999976 0.00693138 1472.14 553.315)" fill="white"/>
<ellipse rx="0.5" ry="0.5" transform="matrix(0.0268044 -0.999641 0.999976 0.00693138 1616.68 449.701)" fill="white"/>
<ellipse rx="0.5" ry="0.5" transform="matrix(0.0268044 -0.999641 0.999976 0.00693138 1437.9 487.264)" fill="white"/>
<ellipse rx="0.5" ry="0.5" transform="matrix(0.0268044 -0.999641 0.999976 0.00693138 1561.86 468.968)" fill="white"/>
<ellipse rx="0.5" ry="0.5" transform="matrix(0.0268044 -0.999641 0.999976 0.00693138 1617.82 556.29)" fill="white"/>
<ellipse rx="0.5" ry="0.5" transform="matrix(0.0268044 -0.999641 0.999976 0.00693138 1396.51 431.967)" fill="white"/>
<ellipse rx="0.5" ry="0.5" transform="matrix(0.0268044 -0.999641 0.999976 0.00693138 1589.68 625.348)" fill="white"/>
<ellipse rx="0.5" ry="0.5" transform="matrix(0.0268044 -0.999641 0.999976 0.00693138 1482.79 731.678)" fill="white"/>
<ellipse rx="0.5" ry="0.5" transform="matrix(0.0268044 -0.999641 0.999976 0.00693138 1426.61 759.284)" fill="white"/>
<circle cx="1675.88" cy="821.918" r="0.5" transform="rotate(87.1974 1675.88 821.918)" fill="white"/>
<circle cx="1832.21" cy="886.35" r="0.5" transform="rotate(87.1974 1832.21 886.35)" fill="white"/>
<circle cx="1843.9" cy="981.893" r="0.5" transform="rotate(87.1974 1843.9 981.893)" fill="white"/>
<circle cx="1883.08" cy="1046.05" r="0.5" transform="rotate(87.1974 1883.08 1046.05)" fill="white"/>
<circle cx="1761.16" cy="1071.05" r="0.5" transform="rotate(87.1974 1761.16 1071.05)" fill="white"/>
<circle cx="1697.98" cy="987.034" r="0.5" transform="rotate(87.1974 1697.98 987.034)" fill="white"/>
<circle cx="1914.02" cy="880.343" r="0.5" transform="rotate(87.1974 1914.02 880.343)" fill="white"/>
<circle cx="1721.57" cy="916.797" r="0.5" transform="rotate(87.1974 1721.57 916.797)" fill="white"/>
<circle cx="1820.21" cy="804.84" r="0.5" transform="rotate(87.1974 1820.21 804.84)" fill="white"/>
<circle cx="1677.98" cy="864.866" r="0.5" transform="rotate(87.1974 1677.98 864.866)" fill="white"/>
<circle cx="1631.38" cy="1017.33" r="0.5" transform="rotate(87.1974 1631.38 1017.33)" fill="white"/>
<circle cx="1542.28" cy="976.635" r="0.5" transform="rotate(87.1974 1542.28 976.635)" fill="white"/>
<circle cx="1595.24" cy="954.018" r="0.5" transform="rotate(87.1974 1595.24 954.018)" fill="white"/>
<circle cx="1533.06" cy="869.958" r="0.5" transform="rotate(87.1974 1533.06 869.958)" fill="white"/>
<circle cx="1555.65" cy="799.77" r="0.5" transform="rotate(87.1974 1555.65 799.77)" fill="white"/>
<ellipse rx="0.5" ry="0.5" transform="matrix(0.0268044 -0.999641 0.999976 0.00693138 1477.79 971.412)" fill="white"/>
<ellipse rx="0.5" ry="0.5" transform="matrix(0.0268044 -0.999641 0.999976 0.00693138 1467.97 804.843)" fill="white"/>
<ellipse rx="0.5" ry="0.5" transform="matrix(0.0268044 -0.999641 0.999976 0.00693138 1439.82 873.901)" fill="white"/>
<circle cx="1525.86" cy="1070.55" r="0.5" transform="rotate(87.1974 1525.86 1070.55)" fill="white"/>
<circle cx="1670.19" cy="1053.47" r="0.5" transform="rotate(87.1974 1670.19 1053.47)" fill="white"/>
<circle cx="1873.78" cy="774.184" r="0.5" transform="rotate(87.1974 1873.78 774.184)" fill="white"/>
<circle cx="1090.35" cy="132.353" r="0.5" transform="rotate(87.1974 1090.35 132.353)" fill="white"/>
<circle cx="1291.46" cy="68.4429" r="0.5" transform="rotate(87.1974 1291.46 68.4429)" fill="white"/>
<circle cx="1000.2" cy="90.7109" r="0.5" transform="rotate(87.1974 1000.2 90.7109)" fill="white"/>
<circle cx="1176.08" cy="43.0541" r="0.5" transform="rotate(87.1974 1176.08 43.0541)" fill="white"/>
<circle cx="1054.16" cy="68.0456" r="0.5" transform="rotate(87.1974 1054.16 68.0456)" fill="white"/>
<circle cx="1221.72" cy="95.8859" r="0.5" transform="rotate(87.1974 1221.72 95.8859)" fill="white"/>
<circle cx="924.379" cy="14.3271" r="0.5" transform="rotate(87.1974 924.379 14.3271)" fill="white"/>
<circle cx="818.855" cy="67.5503" r="0.5" transform="rotate(87.1974 818.855 67.5503)" fill="white"/>
<circle cx="975.193" cy="131.983" r="0.5" transform="rotate(87.1974 975.193 131.983)" fill="white"/>
<circle cx="864.548" cy="162.43" r="0.5" transform="rotate(87.1974 864.548 162.43)" fill="white"/>
<circle cx="963.193" cy="50.4725" r="0.5" transform="rotate(87.1974 963.193 50.4725)" fill="white"/>
<circle cx="932.656" cy="265.222" r="0.5" transform="rotate(87.1974 932.656 265.222)" fill="white"/>
<circle cx="786.733" cy="270.363" r="0.5" transform="rotate(87.1974 786.733 270.363)" fill="white"/>
<circle cx="809.328" cy="200.175" r="0.5" transform="rotate(87.1974 809.328 200.175)" fill="white"/>
<circle cx="1059.78" cy="182.908" r="0.5" transform="rotate(87.1974 1059.78 182.908)" fill="white"/>
<circle cx="1215.12" cy="247.39" r="0.5" transform="rotate(87.1974 1215.12 247.39)" fill="white"/>
<circle cx="1297.93" cy="241.334" r="0.5" transform="rotate(87.1974 1297.93 241.334)" fill="white"/>
<circle cx="1104.48" cy="277.836" r="0.5" transform="rotate(87.1974 1104.48 277.836)" fill="white"/>
<circle cx="1203.12" cy="165.879" r="0.5" transform="rotate(87.1974 1203.12 165.879)" fill="white"/>
<circle cx="1257.69" cy="135.174" r="0.5" transform="rotate(87.1974 1257.69 135.174)" fill="white"/>
<circle cx="1307.12" cy="285.938" r="0.5" transform="rotate(87.1974 1307.12 285.938)" fill="white"/>
</svg>
