<svg width="1920" height="1080" viewBox="0 0 1920 1080" fill="none" xmlns="http://www.w3.org/2000/svg">
<circle cx="40.1289" cy="1042.71" r="1" transform="rotate(-88.1257 40.1289 1042.71)" fill="white"/>
<circle cx="149.641" cy="998.272" r="1" transform="rotate(-88.1257 149.641 998.272)" fill="white"/>
<circle cx="54.1308" cy="675.976" r="1" transform="rotate(-88.1257 54.1308 675.976)" fill="white"/>
<circle cx="140.579" cy="724.83" r="1" transform="rotate(-88.1257 140.579 724.83)" fill="white"/>
<circle cx="84.954" cy="743.02" r="1" transform="rotate(-88.1257 84.954 743.02)" fill="white"/>
<circle cx="141.077" cy="831.903" r="1" transform="rotate(-88.1257 141.077 831.903)" fill="white"/>
<circle cx="111.835" cy="899.983" r="1" transform="rotate(-88.1257 111.835 899.983)" fill="white"/>
<circle cx="151.047" cy="955.295" r="1" transform="rotate(-88.1257 151.047 955.295)" fill="white"/>
<circle cx="209.924" cy="807.142" r="1" transform="rotate(-88.1257 209.924 807.142)" fill="white"/>
<circle cx="295.406" cy="854.963" r="1" transform="rotate(-88.1257 295.406 854.963)" fill="white"/>
<circle cx="240.78" cy="873.186" r="1" transform="rotate(-88.1257 240.78 873.186)" fill="white"/>
<circle cx="295.904" cy="962.037" r="1" transform="rotate(-88.1257 295.904 962.037)" fill="white"/>
<circle cx="267.661" cy="1030.15" r="1" transform="rotate(-88.1257 267.661 1030.15)" fill="white"/>
<ellipse rx="1" ry="1" transform="matrix(-0.108223 0.994127 -0.996081 -0.088443 358.189 866.363)" fill="white"/>
<ellipse rx="1" ry="1" transform="matrix(-0.108223 0.994127 -0.996081 -0.088443 354.399 1033.18)" fill="white"/>
<ellipse rx="1" ry="1" transform="matrix(-0.108223 0.994127 -0.996081 -0.088443 388.081 966.645)" fill="white"/>
<circle cx="319.436" cy="762.7" r="1" transform="rotate(-88.1257 319.436 762.7)" fill="white"/>
<circle cx="168.873" cy="685.734" r="1" transform="rotate(-88.1257 168.873 685.734)" fill="white"/>
<circle cx="281.631" cy="664.41" r="1" transform="rotate(-88.1257 281.631 664.41)" fill="white"/>
<circle cx="174.186" cy="767.952" r="1" transform="rotate(-88.1257 174.186 767.952)" fill="white"/>
<circle cx="222.131" cy="556.407" r="1" transform="rotate(-88.1257 222.131 556.407)" fill="white"/>
<circle cx="367.988" cy="563.181" r="1" transform="rotate(-88.1257 367.988 563.181)" fill="white"/>
<circle cx="339.745" cy="631.294" r="1" transform="rotate(-88.1257 339.745 631.294)" fill="white"/>
<circle cx="88.7158" cy="628.082" r="1" transform="rotate(-88.1257 88.7158 628.082)" fill="white"/>
<circle cx="51.9101" cy="529.825" r="1" transform="rotate(-88.1257 51.9101 529.825)" fill="white"/>
<circle cx="35.7939" cy="380.218" r="1" transform="rotate(-88.1257 35.7939 380.218)" fill="white"/>
<circle cx="25.7333" cy="106.743" r="1" transform="rotate(-88.1257 25.7333 106.743)" fill="white"/>
<circle cx="26.2314" cy="213.816" r="1" transform="rotate(-88.1257 26.2314 213.816)" fill="white"/>
<ellipse rx="1" ry="1" transform="matrix(-0.108223 0.994127 -0.996081 -0.088443 88.6896 118.077)" fill="white"/>
<ellipse rx="1" ry="1" transform="matrix(-0.108223 0.994127 -0.996081 -0.088443 232.871 203.36)" fill="white"/>
<ellipse rx="1" ry="1" transform="matrix(-0.108223 0.994127 -0.996081 -0.088443 229.852 299.735)" fill="white"/>
<ellipse rx="1" ry="1" transform="matrix(-0.108223 0.994127 -0.996081 -0.088443 77.3469 391.22)" fill="white"/>
<ellipse rx="1" ry="1" transform="matrix(-0.108223 0.994127 -0.996081 -0.088443 258.592 368.359)" fill="white"/>
<ellipse rx="1" ry="1" transform="matrix(-0.108223 0.994127 -0.996081 -0.088443 133.555 376.487)" fill="white"/>
<ellipse rx="1" ry="1" transform="matrix(-0.108223 0.994127 -0.996081 -0.088443 84.8986 284.892)" fill="white"/>
<ellipse rx="1" ry="1" transform="matrix(-0.108223 0.994127 -0.996081 -0.088443 295.334 426.846)" fill="white"/>
<ellipse rx="1" ry="1" transform="matrix(-0.108223 0.994127 -0.996081 -0.088443 118.581 218.36)" fill="white"/>
<ellipse rx="1" ry="1" transform="matrix(-0.108223 0.994127 -0.996081 -0.088443 233.779 121.098)" fill="white"/>
<ellipse rx="1" ry="1" transform="matrix(-0.108223 0.994127 -0.996081 -0.088443 292.029 98.1644)" fill="white"/>
<circle cx="49.7636" cy="14.4792" r="1" transform="rotate(-88.1257 49.7636 14.4792)" fill="white"/>
<circle cx="167.784" cy="46.3563" r="1" transform="rotate(-88.1257 167.784 46.3563)" fill="white"/>
<ellipse rx="1" ry="1" transform="matrix(-0.108223 0.994127 -0.996081 -0.088443 254.521 49.3861)" fill="white"/>
<circle cx="505.418" cy="1010.92" r="1" transform="rotate(-88.1257 505.418 1010.92)" fill="white"/>
<circle cx="564.327" cy="861.762" r="1" transform="rotate(-88.1257 564.327 861.762)" fill="white"/>
<circle cx="358.67" cy="909.061" r="1" transform="rotate(-88.1257 358.67 909.061)" fill="white"/>
<circle cx="650.775" cy="910.616" r="1" transform="rotate(-88.1257 650.775 910.616)" fill="white"/>
<circle cx="363.559" cy="1004.27" r="1" transform="rotate(-88.1257 363.559 1004.27)" fill="white"/>
<circle cx="471.596" cy="943.773" r="1" transform="rotate(-88.1257 471.596 943.773)" fill="white"/>
<circle cx="595.151" cy="928.806" r="1" transform="rotate(-88.1257 595.151 928.806)" fill="white"/>
<circle cx="651.273" cy="1017.69" r="1" transform="rotate(-88.1257 651.273 1017.69)" fill="white"/>
<circle cx="430.417" cy="887.396" r="1" transform="rotate(-88.1257 430.417 887.396)" fill="white"/>
<circle cx="720.121" cy="992.928" r="1" transform="rotate(-88.1257 720.121 992.928)" fill="white"/>
<circle cx="805.602" cy="1040.75" r="1" transform="rotate(-88.1257 805.602 1040.75)" fill="white"/>
<circle cx="750.977" cy="1058.97" r="1" transform="rotate(-88.1257 750.977 1058.97)" fill="white"/>
<circle cx="829.633" cy="948.486" r="1" transform="rotate(-88.1257 829.633 948.486)" fill="white"/>
<circle cx="679.069" cy="871.52" r="1" transform="rotate(-88.1257 679.069 871.52)" fill="white"/>
<circle cx="791.827" cy="850.197" r="1" transform="rotate(-88.1257 791.827 850.197)" fill="white"/>
<circle cx="684.383" cy="953.738" r="1" transform="rotate(-88.1257 684.383 953.738)" fill="white"/>
<circle cx="732.328" cy="742.193" r="1" transform="rotate(-88.1257 732.328 742.193)" fill="white"/>
<circle cx="849.941" cy="817.08" r="1" transform="rotate(-88.1257 849.941 817.08)" fill="white"/>
<circle cx="421.695" cy="1062.2" r="1" transform="rotate(-88.1257 421.695 1062.2)" fill="white"/>
<circle cx="598.912" cy="813.868" r="1" transform="rotate(-88.1257 598.912 813.868)" fill="white"/>
<circle cx="449.349" cy="736.935" r="1" transform="rotate(-88.1257 449.349 736.935)" fill="white"/>
<circle cx="366.327" cy="736.219" r="1" transform="rotate(-88.1257 366.327 736.219)" fill="white"/>
<circle cx="562.106" cy="715.611" r="1" transform="rotate(-88.1257 562.106 715.611)" fill="white"/>
<circle cx="454.662" cy="819.153" r="1" transform="rotate(-88.1257 454.662 819.153)" fill="white"/>
<circle cx="397.776" cy="845.306" r="1" transform="rotate(-88.1257 397.776 845.306)" fill="white"/>
<circle cx="360.803" cy="691.014" r="1" transform="rotate(-88.1257 360.803 691.014)" fill="white"/>
<circle cx="386.316" cy="736.873" r="1" transform="rotate(-88.1257 386.316 736.873)" fill="white"/>
<circle cx="643.23" cy="774.296" r="1" transform="rotate(-88.1257 643.23 774.296)" fill="white"/>
<circle cx="332.513" cy="791.143" r="1" transform="rotate(-88.1257 332.513 791.143)" fill="white"/>
<circle cx="492.667" cy="697.33" r="1" transform="rotate(-88.1257 492.667 697.33)" fill="white"/>
<circle cx="488.81" cy="601.153" r="1" transform="rotate(-88.1257 488.81 601.153)" fill="white"/>
<circle cx="547.687" cy="452.999" r="1" transform="rotate(-88.1257 547.687 452.999)" fill="white"/>
<circle cx="342.063" cy="499.299" r="1" transform="rotate(-88.1257 342.063 499.299)" fill="white"/>
<circle cx="633.169" cy="500.821" r="1" transform="rotate(-88.1257 633.169 500.821)" fill="white"/>
<circle cx="345.952" cy="594.477" r="1" transform="rotate(-88.1257 345.952 594.477)" fill="white"/>
<circle cx="454.988" cy="534.011" r="1" transform="rotate(-88.1257 454.988 534.011)" fill="white"/>
<circle cx="578.544" cy="519.044" r="1" transform="rotate(-88.1257 578.544 519.044)" fill="white"/>
<circle cx="633.668" cy="607.894" r="1" transform="rotate(-88.1257 633.668 607.894)" fill="white"/>
<circle cx="413.81" cy="477.634" r="1" transform="rotate(-88.1257 413.81 477.634)" fill="white"/>
<circle cx="410.645" cy="696.647" r="1" transform="rotate(-88.1257 410.645 696.647)" fill="white"/>
<circle cx="605.425" cy="676.007" r="1" transform="rotate(-88.1257 605.425 676.007)" fill="white"/>
<circle cx="497.98" cy="779.548" r="1" transform="rotate(-88.1257 497.98 779.548)" fill="white"/>
<circle cx="442.095" cy="805.734" r="1" transform="rotate(-88.1257 442.095 805.734)" fill="white"/>
<circle cx="404.089" cy="652.409" r="1" transform="rotate(-88.1257 404.089 652.409)" fill="white"/>
<circle cx="335.62" cy="696.193" r="1" transform="rotate(-88.1257 335.62 696.193)" fill="white"/>
<circle cx="156.537" cy="451.205" r="1" transform="rotate(-88.1257 156.537 451.205)" fill="white"/>
<circle cx="177.595" cy="510.926" r="1" transform="rotate(-88.1257 177.595 510.926)" fill="white"/>
<circle cx="162.744" cy="414.388" r="1" transform="rotate(-88.1257 162.744 414.388)" fill="white"/>
<circle cx="227.437" cy="516.559" r="1" transform="rotate(-88.1257 227.437 516.559)" fill="white"/>
<circle cx="220.881" cy="472.321" r="1" transform="rotate(-88.1257 220.881 472.321)" fill="white"/>
<circle cx="152.412" cy="516.105" r="1" transform="rotate(-88.1257 152.412 516.105)" fill="white"/>
<ellipse rx="1" ry="1" transform="matrix(-0.108223 0.994127 -0.996081 -0.088443 696.125 512.155)" fill="white"/>
<ellipse rx="1" ry="1" transform="matrix(-0.108223 0.994127 -0.996081 -0.088443 840.307 597.438)" fill="white"/>
<ellipse rx="1" ry="1" transform="matrix(-0.108223 0.994127 -0.996081 -0.088443 837.287 693.813)" fill="white"/>
<ellipse rx="1" ry="1" transform="matrix(-0.108223 0.994127 -0.996081 -0.088443 684.783 785.298)" fill="white"/>
<ellipse rx="1" ry="1" transform="matrix(-0.108223 0.994127 -0.996081 -0.088443 866.029 762.437)" fill="white"/>
<ellipse rx="1" ry="1" transform="matrix(-0.108223 0.994127 -0.996081 -0.088443 740.991 770.564)" fill="white"/>
<ellipse rx="1" ry="1" transform="matrix(-0.108223 0.994127 -0.996081 -0.088443 692.335 678.97)" fill="white"/>
<ellipse rx="1" ry="1" transform="matrix(-0.108223 0.994127 -0.996081 -0.088443 726.018 612.437)" fill="white"/>
<ellipse rx="1" ry="1" transform="matrix(-0.108223 0.994127 -0.996081 -0.088443 841.215 515.176)" fill="white"/>
<circle cx="400.286" cy="371.134" r="1" transform="rotate(-88.1257 400.286 371.134)" fill="white"/>
<circle cx="657.199" cy="408.557" r="1" transform="rotate(-88.1257 657.199 408.557)" fill="white"/>
<circle cx="346.482" cy="425.404" r="1" transform="rotate(-88.1257 346.482 425.404)" fill="white"/>
<circle cx="506.637" cy="331.592" r="1" transform="rotate(-88.1257 506.637 331.592)" fill="white"/>
<circle cx="502.78" cy="235.414" r="1" transform="rotate(-88.1257 502.78 235.414)" fill="white"/>
<circle cx="561.689" cy="86.2609" r="1" transform="rotate(-88.1257 561.689 86.2609)" fill="white"/>
<circle cx="356.033" cy="133.56" r="1" transform="rotate(-88.1257 356.033 133.56)" fill="white"/>
<circle cx="648.139" cy="135.114" r="1" transform="rotate(-88.1257 648.139 135.114)" fill="white"/>
<circle cx="360.922" cy="228.771" r="1" transform="rotate(-88.1257 360.922 228.771)" fill="white"/>
<circle cx="468.958" cy="168.272" r="1" transform="rotate(-88.1257 468.958 168.272)" fill="white"/>
<circle cx="592.514" cy="153.305" r="1" transform="rotate(-88.1257 592.514 153.305)" fill="white"/>
<circle cx="648.637" cy="242.188" r="1" transform="rotate(-88.1257 648.637 242.188)" fill="white"/>
<circle cx="427.779" cy="111.895" r="1" transform="rotate(-88.1257 427.779 111.895)" fill="white"/>
<circle cx="424.615" cy="330.909" r="1" transform="rotate(-88.1257 424.615 330.909)" fill="white"/>
<circle cx="619.394" cy="310.268" r="1" transform="rotate(-88.1257 619.394 310.268)" fill="white"/>
<circle cx="511.95" cy="413.809" r="1" transform="rotate(-88.1257 511.95 413.809)" fill="white"/>
<circle cx="658.606" cy="365.58" r="1" transform="rotate(-88.1257 658.606 365.58)" fill="white"/>
<circle cx="717.483" cy="217.427" r="1" transform="rotate(-88.1257 717.483 217.427)" fill="white"/>
<circle cx="802.965" cy="265.248" r="1" transform="rotate(-88.1257 802.965 265.248)" fill="white"/>
<circle cx="748.34" cy="283.471" r="1" transform="rotate(-88.1257 748.34 283.471)" fill="white"/>
<circle cx="803.463" cy="372.322" r="1" transform="rotate(-88.1257 803.463 372.322)" fill="white"/>
<circle cx="775.221" cy="440.434" r="1" transform="rotate(-88.1257 775.221 440.434)" fill="white"/>
<ellipse rx="1" ry="1" transform="matrix(-0.108223 0.994127 -0.996081 -0.088443 865.748 276.647)" fill="white"/>
<ellipse rx="1" ry="1" transform="matrix(-0.108223 0.994127 -0.996081 -0.088443 861.957 443.464)" fill="white"/>
<circle cx="826.995" cy="172.985" r="1" transform="rotate(-88.1257 826.995 172.985)" fill="white"/>
<circle cx="676.432" cy="96.019" r="1" transform="rotate(-88.1257 676.432 96.019)" fill="white"/>
<circle cx="789.189" cy="74.6955" r="1" transform="rotate(-88.1257 789.189 74.6955)" fill="white"/>
<circle cx="681.746" cy="178.237" r="1" transform="rotate(-88.1257 681.746 178.237)" fill="white"/>
<circle cx="847.304" cy="41.5785" r="1" transform="rotate(-88.1257 847.304 41.5785)" fill="white"/>
<circle cx="456.063" cy="439.996" r="1" transform="rotate(-88.1257 456.063 439.996)" fill="white"/>
<circle cx="419.058" cy="286.703" r="1" transform="rotate(-88.1257 419.058 286.703)" fill="white"/>
<circle cx="349.59" cy="330.454" r="1" transform="rotate(-88.1257 349.59 330.454)" fill="white"/>
<circle cx="596.274" cy="38.3665" r="1" transform="rotate(-88.1257 596.274 38.3665)" fill="white"/>
<circle cx="452.024" cy="43.6514" r="1" transform="rotate(-88.1257 452.024 43.6514)" fill="white"/>
<circle cx="395.139" cy="69.8048" r="1" transform="rotate(-88.1257 395.139 69.8048)" fill="white"/>
<ellipse rx="1" ry="1" transform="matrix(-0.998229 -0.0594848 0.0396334 -0.999214 301.508 19.3)" fill="white"/>
<ellipse rx="1" ry="1" transform="matrix(-0.998229 -0.0594848 0.0396334 -0.999214 244.887 58.858)" fill="white"/>
<ellipse rx="1" ry="1" transform="matrix(-0.998229 -0.0594848 0.0396334 -0.999214 573.013 39.4867)" fill="white"/>
<ellipse rx="1" ry="1" transform="matrix(-0.998229 -0.0594848 0.0396334 -0.999214 688.001 30.0267)" fill="white"/>
<circle cx="64.0483" cy="518.035" r="1" transform="rotate(-0.928346 64.0483 518.035)" fill="white"/>
<circle cx="64.4135" cy="664.048" r="1" transform="rotate(-0.928346 64.4135 664.048)" fill="white"/>
<circle cx="55.4633" cy="235.136" r="1" transform="rotate(-0.928346 55.4633 235.136)" fill="white"/>
<circle cx="52.1186" cy="152.179" r="1" transform="rotate(-0.928346 52.1186 152.179)" fill="white"/>
<circle cx="82.2749" cy="346.717" r="1" transform="rotate(-0.928346 82.2749 346.717)" fill="white"/>
<circle cx="96.9995" cy="144.452" r="1" transform="rotate(-0.928346 96.9995 144.452)" fill="white"/>
<circle cx="1047.25" cy="1005.87" r="1" transform="rotate(-88.1257 1047.25 1005.87)" fill="white"/>
<circle cx="1106.13" cy="857.714" r="1" transform="rotate(-88.1257 1106.13 857.714)" fill="white"/>
<circle cx="900.504" cy="904.014" r="1" transform="rotate(-88.1257 900.504 904.014)" fill="white"/>
<circle cx="1191.61" cy="905.536" r="1" transform="rotate(-88.1257 1191.61 905.536)" fill="white"/>
<circle cx="904.393" cy="999.192" r="1" transform="rotate(-88.1257 904.393 999.192)" fill="white"/>
<circle cx="1013.43" cy="938.726" r="1" transform="rotate(-88.1257 1013.43 938.726)" fill="white"/>
<circle cx="1136.99" cy="923.759" r="1" transform="rotate(-88.1257 1136.99 923.759)" fill="white"/>
<circle cx="1192.11" cy="1012.61" r="1" transform="rotate(-88.1257 1192.11 1012.61)" fill="white"/>
<circle cx="972.251" cy="882.349" r="1" transform="rotate(-88.1257 972.251 882.349)" fill="white"/>
<circle cx="962.529" cy="1057.12" r="1" transform="rotate(-88.1257 962.529 1057.12)" fill="white"/>
<ellipse rx="1" ry="1" transform="matrix(-0.108223 0.994127 -0.996081 -0.088443 1254.57 916.87)" fill="white"/>
<ellipse rx="1" ry="1" transform="matrix(-0.108223 0.994127 -0.996081 -0.088443 1398.75 1002.15)" fill="white"/>
<ellipse rx="1" ry="1" transform="matrix(-0.108223 0.994127 -0.996081 -0.088443 1284.46 1017.15)" fill="white"/>
<ellipse rx="1" ry="1" transform="matrix(-0.108223 0.994127 -0.996081 -0.088443 1399.66 919.891)" fill="white"/>
<ellipse rx="1" ry="1" transform="matrix(-0.108223 0.994127 -0.996081 -0.088443 1457.91 896.958)" fill="white"/>
<circle cx="958.727" cy="775.849" r="1" transform="rotate(-88.1257 958.727 775.849)" fill="white"/>
<circle cx="1215.64" cy="813.272" r="1" transform="rotate(-88.1257 1215.64 813.272)" fill="white"/>
<circle cx="904.924" cy="830.119" r="1" transform="rotate(-88.1257 904.924 830.119)" fill="white"/>
<circle cx="1065.08" cy="736.307" r="1" transform="rotate(-88.1257 1065.08 736.307)" fill="white"/>
<circle cx="1061.22" cy="640.129" r="1" transform="rotate(-88.1257 1061.22 640.129)" fill="white"/>
<circle cx="1120.13" cy="490.976" r="1" transform="rotate(-88.1257 1120.13 490.976)" fill="white"/>
<circle cx="914.474" cy="538.275" r="1" transform="rotate(-88.1257 914.474 538.275)" fill="white"/>
<circle cx="1206.58" cy="539.83" r="1" transform="rotate(-88.1257 1206.58 539.83)" fill="white"/>
<circle cx="919.362" cy="633.486" r="1" transform="rotate(-88.1257 919.362 633.486)" fill="white"/>
<circle cx="1027.4" cy="572.987" r="1" transform="rotate(-88.1257 1027.4 572.987)" fill="white"/>
<circle cx="1150.95" cy="558.02" r="1" transform="rotate(-88.1257 1150.95 558.02)" fill="white"/>
<circle cx="1207.08" cy="646.903" r="1" transform="rotate(-88.1257 1207.08 646.903)" fill="white"/>
<circle cx="986.221" cy="516.61" r="1" transform="rotate(-88.1257 986.221 516.61)" fill="white"/>
<circle cx="983.056" cy="735.624" r="1" transform="rotate(-88.1257 983.056 735.624)" fill="white"/>
<circle cx="1177.83" cy="714.983" r="1" transform="rotate(-88.1257 1177.83 714.983)" fill="white"/>
<circle cx="1070.39" cy="818.524" r="1" transform="rotate(-88.1257 1070.39 818.524)" fill="white"/>
<circle cx="1217.05" cy="770.295" r="1" transform="rotate(-88.1257 1217.05 770.295)" fill="white"/>
<circle cx="1275.92" cy="622.142" r="1" transform="rotate(-88.1257 1275.92 622.142)" fill="white"/>
<circle cx="1361.41" cy="669.963" r="1" transform="rotate(-88.1257 1361.41 669.963)" fill="white"/>
<circle cx="1306.78" cy="688.186" r="1" transform="rotate(-88.1257 1306.78 688.186)" fill="white"/>
<circle cx="1361.9" cy="777.037" r="1" transform="rotate(-88.1257 1361.9 777.037)" fill="white"/>
<circle cx="1333.66" cy="845.149" r="1" transform="rotate(-88.1257 1333.66 845.149)" fill="white"/>
<ellipse rx="1" ry="1" transform="matrix(-0.108223 0.994127 -0.996081 -0.088443 1424.19 681.363)" fill="white"/>
<ellipse rx="1" ry="1" transform="matrix(-0.108223 0.994127 -0.996081 -0.088443 1420.4 848.179)" fill="white"/>
<ellipse rx="1" ry="1" transform="matrix(-0.108223 0.994127 -0.996081 -0.088443 1454.08 781.645)" fill="white"/>
<circle cx="1385.44" cy="577.7" r="1" transform="rotate(-88.1257 1385.44 577.7)" fill="white"/>
<circle cx="1234.87" cy="500.734" r="1" transform="rotate(-88.1257 1234.87 500.734)" fill="white"/>
<circle cx="1347.63" cy="479.41" r="1" transform="rotate(-88.1257 1347.63 479.41)" fill="white"/>
<circle cx="1240.19" cy="582.952" r="1" transform="rotate(-88.1257 1240.19 582.952)" fill="white"/>
<circle cx="1288.13" cy="371.407" r="1" transform="rotate(-88.1257 1288.13 371.407)" fill="white"/>
<circle cx="1433.99" cy="378.181" r="1" transform="rotate(-88.1257 1433.99 378.181)" fill="white"/>
<circle cx="1405.75" cy="446.293" r="1" transform="rotate(-88.1257 1405.75 446.293)" fill="white"/>
<circle cx="1014.5" cy="844.711" r="1" transform="rotate(-88.1257 1014.5 844.711)" fill="white"/>
<circle cx="977.499" cy="691.418" r="1" transform="rotate(-88.1257 977.499 691.418)" fill="white"/>
<circle cx="908.03" cy="735.169" r="1" transform="rotate(-88.1257 908.03 735.169)" fill="white"/>
<circle cx="1154.72" cy="443.082" r="1" transform="rotate(-88.1257 1154.72 443.082)" fill="white"/>
<circle cx="1005.15" cy="366.149" r="1" transform="rotate(-88.1257 1005.15 366.149)" fill="white"/>
<circle cx="922.131" cy="365.433" r="1" transform="rotate(-88.1257 922.131 365.433)" fill="white"/>
<circle cx="1117.91" cy="344.825" r="1" transform="rotate(-88.1257 1117.91 344.825)" fill="white"/>
<circle cx="1010.47" cy="448.366" r="1" transform="rotate(-88.1257 1010.47 448.366)" fill="white"/>
<circle cx="953.58" cy="474.52" r="1" transform="rotate(-88.1257 953.58 474.52)" fill="white"/>
<circle cx="916.606" cy="320.228" r="1" transform="rotate(-88.1257 916.606 320.228)" fill="white"/>
<circle cx="1101.79" cy="195.218" r="1" transform="rotate(-88.1257 1101.79 195.218)" fill="white"/>
<circle cx="951.23" cy="118.252" r="1" transform="rotate(-88.1257 951.23 118.252)" fill="white"/>
<circle cx="947.374" cy="22.0749" r="1" transform="rotate(-88.1257 947.374 22.0749)" fill="white"/>
<circle cx="1092.23" cy="28.8162" r="1" transform="rotate(-88.1257 1092.23 28.8162)" fill="white"/>
<circle cx="1063.99" cy="96.9289" r="1" transform="rotate(-88.1257 1063.99 96.9289)" fill="white"/>
<circle cx="956.545" cy="200.47" r="1" transform="rotate(-88.1257 956.545 200.47)" fill="white"/>
<circle cx="900.658" cy="226.656" r="1" transform="rotate(-88.1257 900.658 226.656)" fill="white"/>
<ellipse rx="1" ry="1" transform="matrix(-0.108223 0.994127 -0.996081 -0.088443 1298.87 18.36)" fill="white"/>
<ellipse rx="1" ry="1" transform="matrix(-0.108223 0.994127 -0.996081 -0.088443 1295.85 114.735)" fill="white"/>
<ellipse rx="1" ry="1" transform="matrix(-0.108223 0.994127 -0.996081 -0.088443 1143.35 206.22)" fill="white"/>
<ellipse rx="1" ry="1" transform="matrix(-0.108223 0.994127 -0.996081 -0.088443 1324.59 183.359)" fill="white"/>
<ellipse rx="1" ry="1" transform="matrix(-0.108223 0.994127 -0.996081 -0.088443 1199.55 191.487)" fill="white"/>
<ellipse rx="1" ry="1" transform="matrix(-0.108223 0.994127 -0.996081 -0.088443 1150.9 99.8921)" fill="white"/>
<ellipse rx="1" ry="1" transform="matrix(-0.108223 0.994127 -0.996081 -0.088443 1361.33 241.846)" fill="white"/>
<ellipse rx="1" ry="1" transform="matrix(-0.108223 0.994127 -0.996081 -0.088443 1184.58 33.3595)" fill="white"/>
<circle cx="1616.33" cy="1043.5" r="1" transform="rotate(-88.1257 1616.33 1043.5)" fill="white"/>
<circle cx="1482.45" cy="1068.13" r="1" transform="rotate(-88.1257 1482.45 1068.13)" fill="white"/>
<circle cx="1468.92" cy="961.636" r="1" transform="rotate(-88.1257 1468.92 961.636)" fill="white"/>
<circle cx="1725.84" cy="999.058" r="1" transform="rotate(-88.1257 1725.84 999.058)" fill="white"/>
<circle cx="1415.12" cy="1015.9" r="1" transform="rotate(-88.1257 1415.12 1015.9)" fill="white"/>
<circle cx="1575.27" cy="922.093" r="1" transform="rotate(-88.1257 1575.27 922.093)" fill="white"/>
<circle cx="1571.42" cy="825.915" r="1" transform="rotate(-88.1257 1571.42 825.915)" fill="white"/>
<circle cx="1630.33" cy="676.762" r="1" transform="rotate(-88.1257 1630.33 676.762)" fill="white"/>
<circle cx="1424.67" cy="724.061" r="1" transform="rotate(-88.1257 1424.67 724.061)" fill="white"/>
<circle cx="1716.78" cy="725.616" r="1" transform="rotate(-88.1257 1716.78 725.616)" fill="white"/>
<circle cx="1429.56" cy="819.272" r="1" transform="rotate(-88.1257 1429.56 819.272)" fill="white"/>
<circle cx="1537.6" cy="758.773" r="1" transform="rotate(-88.1257 1537.6 758.773)" fill="white"/>
<circle cx="1661.15" cy="743.806" r="1" transform="rotate(-88.1257 1661.15 743.806)" fill="white"/>
<circle cx="1717.27" cy="832.689" r="1" transform="rotate(-88.1257 1717.27 832.689)" fill="white"/>
<circle cx="1496.42" cy="702.396" r="1" transform="rotate(-88.1257 1496.42 702.396)" fill="white"/>
<circle cx="1493.25" cy="921.41" r="1" transform="rotate(-88.1257 1493.25 921.41)" fill="white"/>
<circle cx="1688.03" cy="900.769" r="1" transform="rotate(-88.1257 1688.03 900.769)" fill="white"/>
<circle cx="1580.59" cy="1004.31" r="1" transform="rotate(-88.1257 1580.59 1004.31)" fill="white"/>
<circle cx="1727.24" cy="956.081" r="1" transform="rotate(-88.1257 1727.24 956.081)" fill="white"/>
<circle cx="1786.12" cy="807.928" r="1" transform="rotate(-88.1257 1786.12 807.928)" fill="white"/>
<circle cx="1871.6" cy="855.749" r="1" transform="rotate(-88.1257 1871.6 855.749)" fill="white"/>
<circle cx="1816.98" cy="873.972" r="1" transform="rotate(-88.1257 1816.98 873.972)" fill="white"/>
<circle cx="1872.1" cy="962.823" r="1" transform="rotate(-88.1257 1872.1 962.823)" fill="white"/>
<circle cx="1843.86" cy="1030.94" r="1" transform="rotate(-88.1257 1843.86 1030.94)" fill="white"/>
<circle cx="1895.63" cy="763.486" r="1" transform="rotate(-88.1257 1895.63 763.486)" fill="white"/>
<circle cx="1745.07" cy="686.52" r="1" transform="rotate(-88.1257 1745.07 686.52)" fill="white"/>
<circle cx="1857.83" cy="665.197" r="1" transform="rotate(-88.1257 1857.83 665.197)" fill="white"/>
<circle cx="1750.38" cy="768.738" r="1" transform="rotate(-88.1257 1750.38 768.738)" fill="white"/>
<circle cx="1798.33" cy="557.193" r="1" transform="rotate(-88.1257 1798.33 557.193)" fill="white"/>
<circle cx="1524.7" cy="1030.5" r="1" transform="rotate(-88.1257 1524.7 1030.5)" fill="white"/>
<circle cx="1487.7" cy="877.204" r="1" transform="rotate(-88.1257 1487.7 877.204)" fill="white"/>
<circle cx="1418.23" cy="920.956" r="1" transform="rotate(-88.1257 1418.23 920.956)" fill="white"/>
<circle cx="1664.91" cy="628.868" r="1" transform="rotate(-88.1257 1664.91 628.868)" fill="white"/>
<circle cx="1515.35" cy="551.935" r="1" transform="rotate(-88.1257 1515.35 551.935)" fill="white"/>
<circle cx="1432.33" cy="551.219" r="1" transform="rotate(-88.1257 1432.33 551.219)" fill="white"/>
<circle cx="1628.11" cy="530.611" r="1" transform="rotate(-88.1257 1628.11 530.611)" fill="white"/>
<circle cx="1520.66" cy="634.153" r="1" transform="rotate(-88.1257 1520.66 634.153)" fill="white"/>
<circle cx="1463.78" cy="660.306" r="1" transform="rotate(-88.1257 1463.78 660.306)" fill="white"/>
<circle cx="1426.8" cy="506.014" r="1" transform="rotate(-88.1257 1426.8 506.014)" fill="white"/>
<circle cx="1452.32" cy="551.873" r="1" transform="rotate(-88.1257 1452.32 551.873)" fill="white"/>
<circle cx="1709.23" cy="589.296" r="1" transform="rotate(-88.1257 1709.23 589.296)" fill="white"/>
<circle cx="1398.51" cy="606.143" r="1" transform="rotate(-88.1257 1398.51 606.143)" fill="white"/>
<circle cx="1558.67" cy="512.33" r="1" transform="rotate(-88.1257 1558.67 512.33)" fill="white"/>
<circle cx="1554.81" cy="416.153" r="1" transform="rotate(-88.1257 1554.81 416.153)" fill="white"/>
<circle cx="1613.69" cy="267.999" r="1" transform="rotate(-88.1257 1613.69 267.999)" fill="white"/>
<circle cx="1408.06" cy="314.299" r="1" transform="rotate(-88.1257 1408.06 314.299)" fill="white"/>
<circle cx="1699.17" cy="315.821" r="1" transform="rotate(-88.1257 1699.17 315.821)" fill="white"/>
<circle cx="1411.95" cy="409.477" r="1" transform="rotate(-88.1257 1411.95 409.477)" fill="white"/>
<circle cx="1520.99" cy="349.011" r="1" transform="rotate(-88.1257 1520.99 349.011)" fill="white"/>
<circle cx="1644.54" cy="334.044" r="1" transform="rotate(-88.1257 1644.54 334.044)" fill="white"/>
<circle cx="1699.67" cy="422.894" r="1" transform="rotate(-88.1257 1699.67 422.894)" fill="white"/>
<circle cx="1479.81" cy="292.634" r="1" transform="rotate(-88.1257 1479.81 292.634)" fill="white"/>
<circle cx="1476.65" cy="511.647" r="1" transform="rotate(-88.1257 1476.65 511.647)" fill="white"/>
<circle cx="1671.42" cy="491.007" r="1" transform="rotate(-88.1257 1671.42 491.007)" fill="white"/>
<circle cx="1563.98" cy="594.548" r="1" transform="rotate(-88.1257 1563.98 594.548)" fill="white"/>
<circle cx="1508.09" cy="620.734" r="1" transform="rotate(-88.1257 1508.09 620.734)" fill="white"/>
<circle cx="1470.09" cy="467.409" r="1" transform="rotate(-88.1257 1470.09 467.409)" fill="white"/>
<circle cx="1401.62" cy="511.193" r="1" transform="rotate(-88.1257 1401.62 511.193)" fill="white"/>
<circle cx="1222.54" cy="266.205" r="1" transform="rotate(-88.1257 1222.54 266.205)" fill="white"/>
<circle cx="1243.59" cy="325.926" r="1" transform="rotate(-88.1257 1243.59 325.926)" fill="white"/>
<circle cx="1228.74" cy="229.388" r="1" transform="rotate(-88.1257 1228.74 229.388)" fill="white"/>
<circle cx="1293.44" cy="331.559" r="1" transform="rotate(-88.1257 1293.44 331.559)" fill="white"/>
<circle cx="1286.88" cy="287.321" r="1" transform="rotate(-88.1257 1286.88 287.321)" fill="white"/>
<circle cx="1218.41" cy="331.105" r="1" transform="rotate(-88.1257 1218.41 331.105)" fill="white"/>
<ellipse rx="1" ry="1" transform="matrix(-0.108223 0.994127 -0.996081 -0.088443 1762.13 327.155)" fill="white"/>
<ellipse rx="1" ry="1" transform="matrix(-0.108223 0.994127 -0.996081 -0.088443 1906.31 412.438)" fill="white"/>
<ellipse rx="1" ry="1" transform="matrix(-0.108223 0.994127 -0.996081 -0.088443 1903.29 508.813)" fill="white"/>
<ellipse rx="1" ry="1" transform="matrix(-0.108223 0.994127 -0.996081 -0.088443 1750.78 600.298)" fill="white"/>
<ellipse rx="1" ry="1" transform="matrix(-0.108223 0.994127 -0.996081 -0.088443 1806.99 585.564)" fill="white"/>
<ellipse rx="1" ry="1" transform="matrix(-0.108223 0.994127 -0.996081 -0.088443 1758.34 493.97)" fill="white"/>
<ellipse rx="1" ry="1" transform="matrix(-0.108223 0.994127 -0.996081 -0.088443 1792.02 427.437)" fill="white"/>
<ellipse rx="1" ry="1" transform="matrix(-0.108223 0.994127 -0.996081 -0.088443 1907.22 330.176)" fill="white"/>
<circle cx="1466.29" cy="186.134" r="1" transform="rotate(-88.1257 1466.29 186.134)" fill="white"/>
<circle cx="1723.2" cy="223.557" r="1" transform="rotate(-88.1257 1723.2 223.557)" fill="white"/>
<circle cx="1412.48" cy="240.404" r="1" transform="rotate(-88.1257 1412.48 240.404)" fill="white"/>
<circle cx="1572.64" cy="146.592" r="1" transform="rotate(-88.1257 1572.64 146.592)" fill="white"/>
<circle cx="1568.78" cy="50.414" r="1" transform="rotate(-88.1257 1568.78 50.414)" fill="white"/>
<circle cx="1426.92" cy="43.7708" r="1" transform="rotate(-88.1257 1426.92 43.7708)" fill="white"/>
<circle cx="1714.64" cy="57.1881" r="1" transform="rotate(-88.1257 1714.64 57.1881)" fill="white"/>
<circle cx="1490.62" cy="145.909" r="1" transform="rotate(-88.1257 1490.62 145.909)" fill="white"/>
<circle cx="1685.39" cy="125.268" r="1" transform="rotate(-88.1257 1685.39 125.268)" fill="white"/>
<circle cx="1577.95" cy="228.809" r="1" transform="rotate(-88.1257 1577.95 228.809)" fill="white"/>
<circle cx="1724.61" cy="180.58" r="1" transform="rotate(-88.1257 1724.61 180.58)" fill="white"/>
<circle cx="1783.48" cy="32.4266" r="1" transform="rotate(-88.1257 1783.48 32.4266)" fill="white"/>
<circle cx="1868.96" cy="80.248" r="1" transform="rotate(-88.1257 1868.96 80.248)" fill="white"/>
<circle cx="1814.34" cy="98.4711" r="1" transform="rotate(-88.1257 1814.34 98.4711)" fill="white"/>
<circle cx="1869.46" cy="187.322" r="1" transform="rotate(-88.1257 1869.46 187.322)" fill="white"/>
<circle cx="1841.22" cy="255.434" r="1" transform="rotate(-88.1257 1841.22 255.434)" fill="white"/>
<circle cx="1522.06" cy="254.996" r="1" transform="rotate(-88.1257 1522.06 254.996)" fill="white"/>
<circle cx="1485.06" cy="101.703" r="1" transform="rotate(-88.1257 1485.06 101.703)" fill="white"/>
<circle cx="1415.59" cy="145.455" r="1" transform="rotate(-88.1257 1415.59 145.455)" fill="white"/>
<circle cx="1002.41" cy="171.081" r="1" transform="rotate(-0.928346 1002.41 171.081)" fill="white"/>
<circle cx="957.839" cy="259.814" r="1" transform="rotate(-0.928346 957.839 259.814)" fill="white"/>
<circle cx="915.96" cy="82.4701" r="1" transform="rotate(-0.928346 915.96 82.4701)" fill="white"/>
<circle cx="936.951" cy="205.146" r="1" transform="rotate(-0.928346 936.951 205.146)" fill="white"/>
<circle cx="970.256" cy="38.5847" r="1" transform="rotate(-0.928346 970.256 38.5847)" fill="white"/>
<circle cx="879.016" cy="333.102" r="1" transform="rotate(-0.928346 879.016 333.102)" fill="white"/>
<circle cx="928.759" cy="440.31" r="1" transform="rotate(-0.928346 928.759 440.31)" fill="white"/>
<circle cx="998.271" cy="286.163" r="1" transform="rotate(-0.928346 998.271 286.163)" fill="white"/>
<circle cx="1025.08" cy="397.744" r="1" transform="rotate(-0.928346 1025.08 397.744)" fill="white"/>
<circle cx="916.412" cy="295.49" r="1" transform="rotate(-0.928346 916.412 295.49)" fill="white"/>
<circle cx="1130.05" cy="333.035" r="1" transform="rotate(-0.928346 1130.05 333.035)" fill="white"/>
<circle cx="1130.41" cy="479.048" r="1" transform="rotate(-0.928346 1130.41 479.048)" fill="white"/>
<circle cx="1061" cy="454.169" r="1" transform="rotate(-0.928346 1061 454.169)" fill="white"/>
<circle cx="1051.94" cy="203.283" r="1" transform="rotate(-0.928346 1051.94 203.283)" fill="white"/>
<circle cx="1121.46" cy="50.1359" r="1" transform="rotate(-0.928346 1121.46 50.1359)" fill="white"/>
<circle cx="1148.27" cy="161.717" r="1" transform="rotate(-0.928346 1148.27 161.717)" fill="white"/>
<circle cx="1039.6" cy="59.4636" r="1" transform="rotate(-0.928346 1039.6 59.4636)" fill="white"/>
</svg>
