<svg width="1920" height="1080" viewBox="0 0 1920 1080" fill="none" xmlns="http://www.w3.org/2000/svg">
<circle cx="1315.73" cy="83.4219" r="1.5" transform="rotate(88.2194 1315.73 83.4219)" fill="white"/>
<circle cx="1270.82" cy="215.881" r="1.5" transform="rotate(88.2194 1270.82 215.881)" fill="white"/>
<circle cx="302.579" cy="148.501" r="1.5" transform="rotate(88.2194 302.579 148.501)" fill="white"/>
<circle cx="409.024" cy="547.386" r="1.5" transform="rotate(88.2194 409.024 547.386)" fill="white"/>
<circle r="1.5" transform="matrix(0.0446298 -0.999004 0.999693 0.0247659 1283.62 567.892)" fill="white"/>
<circle r="1.5" transform="matrix(0.0446298 -0.999004 0.999693 0.0247659 1396.72 545.638)" fill="white"/>
<circle cx="1477.38" cy="745.719" r="1.5" transform="rotate(88.2194 1477.38 745.719)" fill="white"/>
<circle cx="1593.25" cy="1061.27" r="1.5" transform="rotate(88.2194 1593.25 1061.27)" fill="white"/>
<circle cx="1795.47" cy="1000.96" r="1.5" transform="rotate(88.2194 1795.47 1000.96)" fill="white"/>
<circle cx="1680.56" cy="973.515" r="1.5" transform="rotate(88.2194 1680.56 973.515)" fill="white"/>
<circle cx="1478.72" cy="788.698" r="1.5" transform="rotate(88.2194 1478.72 788.698)" fill="white"/>
<circle cx="1322.95" cy="991.636" r="1.5" transform="rotate(88.2194 1322.95 991.636)" fill="white"/>
<circle cx="421.971" cy="1028.22" r="1.5" transform="rotate(88.2194 421.971 1028.22)" fill="white"/>
<circle cx="1760.51" cy="1067.08" r="1.5" transform="rotate(88.2194 1760.51 1067.08)" fill="white"/>
<circle cx="917.515" cy="275.889" r="1.5" transform="rotate(88.2194 917.515 275.889)" fill="white"/>
<circle r="1.5" transform="matrix(0.0446298 -0.999004 0.999693 0.0247659 740.371 34.2325)" fill="white"/>
<circle cx="1153.2" cy="551.698" r="1.5" transform="rotate(88.2194 1153.2 551.698)" fill="white"/>
<circle cx="926.889" cy="641.774" r="1.5" transform="rotate(88.2194 926.889 641.774)" fill="white"/>
<circle cx="865.213" cy="556.649" r="1.5" transform="rotate(88.2194 865.213 556.649)" fill="white"/>
<circle cx="599.294" cy="414.702" r="1.5" transform="rotate(88.2194 599.294 414.702)" fill="white"/>
<circle cx="679.739" cy="769.515" r="1.5" transform="rotate(88.2194 679.739 769.515)" fill="white"/>
<circle cx="1169.22" cy="1024.65" r="1.5" transform="rotate(175.417 1169.22 1024.65)" fill="white"/>
<circle cx="897.643" cy="1003.28" r="1.5" transform="rotate(175.417 897.643 1003.28)" fill="white"/>
<circle cx="425.658" cy="198.444" r="1.5" transform="rotate(175.417 425.658 198.444)" fill="white"/>
<circle cx="291.162" cy="160.068" r="1.5" transform="rotate(175.417 291.162 160.068)" fill="white"/>
<circle cx="35.3817" cy="896.357" r="1.5" transform="rotate(4.66767 35.3817 896.357)" fill="white"/>
<circle r="1.5" transform="matrix(-0.987671 -0.156542 0.136882 -0.990587 153.981 29.6018)" fill="white"/>
<circle cx="579.462" cy="38.1037" r="1.5" transform="rotate(4.66767 579.462 38.1037)" fill="white"/>
<circle cx="514.624" cy="937.492" r="1.5" transform="rotate(4.66767 514.624 937.492)" fill="white"/>
<circle cx="123.242" cy="157.375" r="1.5" transform="rotate(4.66767 123.242 157.375)" fill="white"/>
<circle cx="187.332" cy="392.369" r="1.5" transform="rotate(4.66767 187.332 392.369)" fill="white"/>
<circle cx="95.8193" cy="444.094" r="1.5" transform="rotate(4.66767 95.8193 444.094)" fill="white"/>
<circle cx="286.509" cy="652.302" r="1.5" transform="rotate(4.66767 286.509 652.302)" fill="white"/>
<circle cx="595.004" cy="194.572" r="1.5" transform="rotate(91.865 595.004 194.572)" fill="white"/>
<circle cx="543.271" cy="462.03" r="1.5" transform="rotate(91.865 543.271 462.03)" fill="white"/>
<circle cx="1190.07" cy="857.332" r="1.5" transform="rotate(4.66767 1190.07 857.332)" fill="white"/>
<circle cx="1598.38" cy="796.357" r="1.5" transform="rotate(4.66767 1598.38 796.357)" fill="white"/>
<circle cx="1385.71" cy="260.592" r="1.5" transform="rotate(4.66767 1385.71 260.592)" fill="white"/>
<circle r="1.5" transform="matrix(-0.987671 -0.156542 0.136882 -0.990587 1125.69 409.476)" fill="white"/>
<circle cx="1686.24" cy="57.3747" r="1.5" transform="rotate(4.66767 1686.24 57.3747)" fill="white"/>
<circle cx="1750.33" cy="292.369" r="1.5" transform="rotate(4.66767 1750.33 292.369)" fill="white"/>
<circle cx="1658.82" cy="344.094" r="1.5" transform="rotate(4.66767 1658.82 344.094)" fill="white"/>
<circle cx="1487.91" cy="592.389" r="1.5" transform="rotate(4.66767 1487.91 592.389)" fill="white"/>
<circle cx="1849.51" cy="552.302" r="1.5" transform="rotate(4.66767 1849.51 552.302)" fill="white"/>
<circle cx="1253.52" cy="740.639" r="1.5" transform="rotate(91.865 1253.52 740.639)" fill="white"/>
<circle cx="1200.28" cy="869.975" r="1.5" transform="rotate(91.865 1200.28 869.975)" fill="white"/>
<circle r="1.5" transform="matrix(0.0446298 -0.999004 0.999693 0.0247659 1348.61 67.9173)" fill="white"/>
<circle r="1.5" transform="matrix(0.0446298 -0.999004 0.999693 0.0247659 1461.71 45.6627)" fill="white"/>
<circle cx="1542.38" cy="245.744" r="1.5" transform="rotate(88.2194 1542.38 245.744)" fill="white"/>
<circle cx="1543.71" cy="288.723" r="1.5" transform="rotate(88.2194 1543.71 288.723)" fill="white"/>
<circle cx="1218.19" cy="51.7234" r="1.5" transform="rotate(88.2194 1218.19 51.7234)" fill="white"/>
<circle cx="991.882" cy="141.799" r="1.5" transform="rotate(88.2194 991.882 141.799)" fill="white"/>
<circle cx="930.207" cy="56.6745" r="1.5" transform="rotate(88.2194 930.207 56.6745)" fill="white"/>
<circle cx="744.732" cy="269.541" r="1.5" transform="rotate(88.2194 744.732 269.541)" fill="white"/>
<circle cx="579.617" cy="437.517" r="1.5" transform="rotate(4.66767 579.617 437.517)" fill="white"/>
<circle cx="1255.06" cy="357.357" r="1.5" transform="rotate(4.66767 1255.06 357.357)" fill="white"/>
<circle cx="1663.37" cy="296.382" r="1.5" transform="rotate(4.66767 1663.37 296.382)" fill="white"/>
<circle cx="1552.9" cy="92.4142" r="1.5" transform="rotate(4.66767 1552.9 92.4142)" fill="white"/>
<circle cx="1318.51" cy="240.665" r="1.5" transform="rotate(91.865 1318.51 240.665)" fill="white"/>
<circle cx="1265.27" cy="370" r="1.5" transform="rotate(91.865 1265.27 370)" fill="white"/>
<circle cx="1602.34" cy="458.628" r="1.5" transform="rotate(88.2194 1602.34 458.628)" fill="white"/>
<circle cx="740.546" cy="790.133" r="1.5" transform="rotate(88.2194 740.546 790.133)" fill="white"/>
<circle r="1.5" transform="matrix(0.0446298 -0.999004 0.999693 0.0247659 1615.14 810.639)" fill="white"/>
<circle r="1.5" transform="matrix(0.0446298 -0.999004 0.999693 0.0247659 1728.24 788.384)" fill="white"/>
<circle cx="1249.04" cy="518.635" r="1.5" transform="rotate(88.2194 1249.04 518.635)" fill="white"/>
<circle cx="1484.72" cy="794.445" r="1.5" transform="rotate(88.2194 1484.72 794.445)" fill="white"/>
<circle cx="1258.41" cy="884.521" r="1.5" transform="rotate(88.2194 1258.41 884.521)" fill="white"/>
<circle cx="1196.74" cy="799.396" r="1.5" transform="rotate(88.2194 1196.74 799.396)" fill="white"/>
<circle cx="930.817" cy="657.448" r="1.5" transform="rotate(88.2194 930.817 657.448)" fill="white"/>
<circle cx="757.181" cy="441.191" r="1.5" transform="rotate(175.417 757.181 441.191)" fill="white"/>
<circle cx="926.526" cy="437.319" r="1.5" transform="rotate(91.865 926.526 437.319)" fill="white"/>
<circle cx="874.794" cy="704.777" r="1.5" transform="rotate(91.865 874.794 704.777)" fill="white"/>
<circle cx="1717.23" cy="503.339" r="1.5" transform="rotate(4.66767 1717.23 503.339)" fill="white"/>
<circle r="1.5" transform="matrix(-0.987671 -0.156542 0.136882 -0.990587 1457.21 652.222)" fill="white"/>
<circle cx="1819.43" cy="835.136" r="1.5" transform="rotate(4.66767 1819.43 835.136)" fill="white"/>
<circle cx="1873.9" cy="488.49" r="1.5" transform="rotate(88.2194 1873.9 488.49)" fill="white"/>
<circle cx="1875.24" cy="531.47" r="1.5" transform="rotate(88.2194 1875.24 531.47)" fill="white"/>
<circle cx="1323.4" cy="384.546" r="1.5" transform="rotate(88.2194 1323.4 384.546)" fill="white"/>
<circle cx="1076.25" cy="512.287" r="1.5" transform="rotate(88.2194 1076.25 512.287)" fill="white"/>
<circle cx="911.14" cy="680.264" r="1.5" transform="rotate(4.66767 911.14 680.264)" fill="white"/>
<circle cx="1586.58" cy="600.104" r="1.5" transform="rotate(4.66767 1586.58 600.104)" fill="white"/>
<circle cx="1650.03" cy="483.411" r="1.5" transform="rotate(91.865 1650.03 483.411)" fill="white"/>
<circle cx="1596.79" cy="612.747" r="1.5" transform="rotate(91.865 1596.79 612.747)" fill="white"/>
<circle cx="292.114" cy="579.343" r="1.5" transform="rotate(-3.32671 292.114 579.343)" fill="white"/>
<circle r="1.5" transform="matrix(-0.999844 -0.0176597 -0.00221555 -0.999998 643.651 557.056)" fill="white"/>
<circle r="1.5" transform="matrix(-0.999844 -0.0176597 -0.00221555 -0.999998 618.353 444.597)" fill="white"/>
<circle cx="361.631" cy="930.901" r="1.5" transform="rotate(-3.32671 361.631 930.901)" fill="white"/>
<circle cx="630.982" cy="687.862" r="1.5" transform="rotate(-3.32671 630.982 687.862)" fill="white"/>
<circle cx="727.13" cy="911.659" r="1.5" transform="rotate(-3.32671 727.13 911.659)" fill="white"/>
<circle cx="643.702" cy="975.609" r="1.5" transform="rotate(-3.32671 643.702 975.609)" fill="white"/>
<circle cx="333.708" cy="463.29" r="1.5" transform="rotate(-86.8784 333.708 463.29)" fill="white"/>
<circle r="1.5" transform="matrix(-0.129837 0.991535 -0.99392 -0.110105 489.554 719.201)" fill="white"/>
<circle cx="662.627" cy="352.179" r="1.5" transform="rotate(-86.8784 662.627 352.179)" fill="white"/>
<circle cx="314.638" cy="307.08" r="1.5" transform="rotate(-3.32671 314.638 307.08)" fill="white"/>
<circle cx="357.566" cy="304.585" r="1.5" transform="rotate(-3.32671 357.566 304.585)" fill="white"/>
<circle cx="225.585" cy="860.179" r="1.5" transform="rotate(-3.32671 225.585 860.179)" fill="white"/>
<circle cx="433.963" cy="591.283" r="1.5" transform="rotate(-86.8784 433.963 591.283)" fill="white"/>
<circle cx="315.601" cy="531.004" r="1.5" transform="rotate(0.31898 315.601 531.004)" fill="white"/>
<circle cx="446.326" cy="580.733" r="1.5" transform="rotate(0.31898 446.326 580.733)" fill="white"/>
<circle cx="1788.43" cy="1064.21" r="1.5" transform="rotate(88.2194 1788.43 1064.21)" fill="#C4C4C4"/>
</svg>
